<svg width="111" height="10" viewBox="0 0 111 10" fill="none" xmlns="http://www.w3.org/2000/svg">
    <path d="M7.21093 1.78633H5.0754V8.8016C5.0754 9.20295 4.98477 9.50821 4.80351 9.70041C4.62224 9.89826 4.39 9.99436 4.10677 9.99436C3.82355 9.99436 3.57997 9.89826 3.39871 9.70041C3.21744 9.50256 3.12681 9.20295 3.12681 8.80725V1.79199H0.99129C0.657083 1.79199 0.407845 1.7185 0.243574 1.57152C0.0793034 1.42455 0 1.23235 0 0.989273C0 0.746198 0.084966 0.542694 0.254901 0.395718C0.424837 0.248743 0.668413 0.180908 0.99129 0.180908H7.22225C7.56212 0.180908 7.81136 0.254396 7.97563 0.407024C8.13991 0.554 8.22487 0.751851 8.22487 0.994927C8.22487 1.238 8.13991 1.4302 7.97563 1.57718C7.81136 1.72415 7.55646 1.79764 7.22225 1.79764L7.21093 1.78633Z" fill="#231F20"/>
    <path d="M15.4756 1.67901H11.0629V4.04757H15.13C15.4303 4.04757 15.6512 4.11541 15.7985 4.25108C15.9457 4.38675 16.0194 4.56199 16.0194 4.78245C16.0194 5.00292 15.9457 5.18381 15.8041 5.31948C15.6568 5.45515 15.4359 5.52864 15.13 5.52864H11.0629V8.27595H15.6285C15.9344 8.27595 16.1666 8.34944 16.3253 8.49076C16.4839 8.63208 16.5575 8.82429 16.5575 9.06171C16.5575 9.29913 16.4782 9.47437 16.3253 9.61569C16.1666 9.75702 15.9344 9.8305 15.6285 9.8305H10.3039C9.87904 9.8305 9.57315 9.7344 9.38622 9.54786C9.19929 9.36131 9.103 9.05605 9.103 8.63208V1.37375C9.103 1.0911 9.14265 0.864986 9.22762 0.684093C9.31258 0.503199 9.44287 0.378835 9.61847 0.294041C9.79407 0.209248 10.0263 0.169678 10.3039 0.169678H15.4756C15.7871 0.169678 16.0194 0.237512 16.1723 0.378835C16.3253 0.514505 16.3989 0.695398 16.3989 0.921515C16.3989 1.14763 16.3253 1.33418 16.1723 1.46985C16.0194 1.61117 15.7871 1.67901 15.4756 1.67901Z" fill="#231F20"/>
    <path d="M24.3065 8.73367L23.842 7.52395H19.9108L19.4463 8.76193C19.2651 9.24243 19.1121 9.5703 18.9818 9.73989C18.8572 9.90947 18.6476 9.99427 18.3531 9.99427C18.1095 9.99427 17.8886 9.90382 17.7017 9.72293C17.5147 9.54204 17.4184 9.33853 17.4184 9.11242C17.4184 8.9824 17.4411 8.84673 17.4864 8.70541C17.5317 8.56408 17.6054 8.37188 17.7017 8.1175L20.177 1.84843C20.245 1.66753 20.33 1.45272 20.4319 1.19834C20.5282 0.943961 20.6359 0.734803 20.7492 0.570868C20.8624 0.406934 21.0097 0.271265 21.191 0.163859C21.3723 0.0621069 21.5988 0.0112305 21.8651 0.0112305C22.1313 0.0112305 22.3635 0.0621069 22.5505 0.163859C22.7374 0.265612 22.879 0.401281 22.9923 0.565215C23.1056 0.72915 23.2019 0.90439 23.2755 1.09094C23.3548 1.27748 23.4511 1.52621 23.5701 1.83712L26.0965 8.06663C26.2947 8.54147 26.391 8.8863 26.391 9.10111C26.391 9.31592 26.2947 9.53073 26.1078 9.71728C25.9209 9.90382 25.6943 9.99992 25.4337 9.99992C25.2808 9.99992 25.1448 9.97166 25.0372 9.91513C24.9296 9.8586 24.8333 9.78511 24.7596 9.68901C24.686 9.59291 24.6067 9.45159 24.5161 9.25374C24.4254 9.05589 24.3575 8.8863 24.2951 8.73932L24.3065 8.73367ZM20.4263 6.05419H23.3152L21.8537 2.06889L20.4206 6.05419H20.4263Z" fill="#231F20"/>
    <path d="M35.205 6.77784C35.205 7.0831 35.1314 7.41662 34.9785 7.77841C34.8255 8.13454 34.5876 8.48502 34.2647 8.82985C33.9362 9.17468 33.5227 9.45167 33.0185 9.67213C32.5144 9.88694 31.9253 9.99435 31.2512 9.99435C30.7414 9.99435 30.2769 9.94912 29.8577 9.84737C29.4386 9.75127 29.059 9.59864 28.7192 9.39514C28.3793 9.19164 28.0621 8.92029 27.7789 8.58677C27.524 8.28152 27.3087 7.94234 27.1274 7.56925C26.9462 7.19616 26.8102 6.7948 26.7196 6.36518C26.629 5.94121 26.5836 5.48898 26.5836 5.00848C26.5836 4.22838 26.6969 3.53307 26.9235 2.92255C27.1501 2.30639 27.473 1.78067 27.8978 1.34539C28.3227 0.910119 28.8155 0.576597 29.3819 0.344828C29.9484 0.118711 30.5545 0 31.1946 0C31.9763 0 32.673 0.158283 33.2848 0.469193C33.8965 0.780103 34.3667 1.1645 34.6896 1.62239C35.0181 2.08027 35.1767 2.51555 35.1767 2.92255C35.1767 3.14867 35.0974 3.34652 34.9388 3.51611C34.7802 3.6857 34.5876 3.77049 34.3667 3.77049C34.1175 3.77049 33.9249 3.71396 33.8002 3.59525C33.6756 3.47654 33.534 3.27304 33.3811 2.98474C33.1262 2.50424 32.8259 2.14811 32.4804 1.91068C32.1349 1.67326 31.71 1.55455 31.2059 1.55455C30.4015 1.55455 29.7614 1.85981 29.28 2.47032C28.8041 3.08084 28.5662 3.94573 28.5662 5.07066C28.5662 5.8225 28.6739 6.44432 28.8834 6.94178C29.093 7.43923 29.3932 7.81232 29.7784 8.06105C30.1636 8.30413 30.6168 8.42849 31.1379 8.42849C31.6987 8.42849 32.1745 8.28717 32.5654 8.01018C32.9562 7.73318 33.2508 7.32052 33.4434 6.78349C33.5283 6.52911 33.6303 6.31996 33.7549 6.16167C33.8795 6.00339 34.0778 5.9186 34.3497 5.9186C34.5819 5.9186 34.7802 5.99774 34.9501 6.16167C35.1144 6.32561 35.1994 6.52346 35.1994 6.76654L35.205 6.77784Z" fill="#231F20"/>
    <path d="M38.3996 1.19273V3.957H42.631V1.19273C42.631 0.797023 42.7217 0.503072 42.8973 0.30522C43.0729 0.107368 43.3108 0.0112683 43.5997 0.0112683C43.8886 0.0112683 44.1321 0.107368 44.3134 0.30522C44.4947 0.503072 44.5853 0.797023 44.5853 1.19838V8.8072C44.5853 9.20855 44.4947 9.5025 44.3077 9.70036C44.1208 9.89821 43.8829 9.99431 43.594 9.99431C43.3051 9.99431 43.0615 9.89256 42.8859 9.6947C42.7103 9.49685 42.6197 9.19725 42.6197 8.80154V5.55677H38.3883V8.80154C38.3883 9.2029 38.2977 9.49685 38.1108 9.6947C37.9238 9.89256 37.6859 9.98866 37.397 9.98866C37.1081 9.98866 36.8646 9.8869 36.689 9.68905C36.5134 9.4912 36.4227 9.19159 36.4227 8.79589V1.18707C36.4227 0.79137 36.5077 0.497419 36.6833 0.299567C36.8589 0.101715 37.0911 0.00561523 37.3914 0.00561523C37.6916 0.00561523 37.9238 0.101715 38.1051 0.299567C38.2864 0.497419 38.377 0.79137 38.377 1.19273H38.3996Z" fill="#231F20"/>
    <path d="M52.2609 1.67901H47.8482V4.04757H51.9153C52.2155 4.04757 52.4364 4.11541 52.5837 4.25108C52.731 4.38675 52.8046 4.56199 52.8046 4.78245C52.8046 5.00292 52.731 5.18381 52.5894 5.31948C52.4421 5.45515 52.2212 5.52864 51.9153 5.52864H47.8482V8.27595H52.4138C52.7197 8.27595 52.9519 8.34944 53.1105 8.49076C53.2691 8.63208 53.3428 8.82429 53.3428 9.06171C53.3428 9.29913 53.2635 9.47437 53.1105 9.61569C52.9519 9.75702 52.7197 9.8305 52.4138 9.8305H47.0891C46.6643 9.8305 46.3584 9.7344 46.1715 9.54786C45.9846 9.36131 45.8883 9.05605 45.8883 8.63208V1.37375C45.8883 1.0911 45.9279 0.864986 46.0129 0.684093C46.0979 0.508852 46.2281 0.378835 46.4037 0.294041C46.585 0.214901 46.8116 0.169678 47.0891 0.169678H52.2609C52.5724 0.169678 52.8046 0.237512 52.9576 0.378835C53.1105 0.514505 53.1842 0.695398 53.1842 0.921515C53.1842 1.14763 53.1105 1.33418 52.9576 1.46985C52.8046 1.61117 52.5724 1.67901 52.2609 1.67901Z" fill="#231F20"/>
    <path d="M56.9906 5.69819H56.3052V8.80163C56.3052 9.20864 56.2146 9.50825 56.0333 9.7061C55.8521 9.90395 55.6198 9.9944 55.3253 9.9944C55.0137 9.9944 54.7702 9.89264 54.6002 9.68914C54.4303 9.48563 54.3453 9.19168 54.3453 8.80163V1.37371C54.3453 0.949741 54.4416 0.644484 54.6285 0.457938C54.8155 0.271392 55.1214 0.175293 55.5462 0.175293H58.7353C59.1771 0.175293 59.551 0.192252 59.8625 0.231822C60.1741 0.271393 60.4573 0.34488 60.7066 0.457938C61.0124 0.587955 61.2787 0.768848 61.5109 1.00627C61.7432 1.24369 61.9188 1.52069 62.0434 1.8316C62.1623 2.14251 62.2246 2.47603 62.2246 2.82651C62.2246 3.54443 62.0207 4.12102 61.6129 4.55064C61.205 4.98027 60.5876 5.28552 59.7606 5.46642C60.1061 5.65296 60.4403 5.9243 60.7575 6.28044C61.0748 6.64222 61.358 7.02662 61.6072 7.42798C61.8565 7.83498 62.049 8.20242 62.1907 8.53029C62.3323 8.85816 62.4002 9.08428 62.4002 9.20299C62.4002 9.3217 62.3606 9.45737 62.2756 9.58173C62.1963 9.7061 62.083 9.80785 61.9414 9.87569C61.7998 9.94917 61.6355 9.98309 61.4543 9.98309C61.2334 9.98309 61.0521 9.93221 60.8992 9.83046C60.7519 9.72871 60.6216 9.59869 60.514 9.44041C60.4063 9.28213 60.2591 9.05036 60.0778 8.73945L59.2904 7.43363C59.0072 6.95313 58.758 6.59135 58.5371 6.34262C58.3161 6.09389 58.0896 5.91865 57.863 5.8282C57.6364 5.73776 57.3475 5.69253 56.9963 5.69253L56.9906 5.69819ZM58.1122 1.6394H56.3052V4.29061H58.0612C58.5314 4.29061 58.9279 4.25104 59.2508 4.1719C59.5737 4.09276 59.8172 3.95144 59.9872 3.75924C60.1571 3.56139 60.2421 3.2957 60.2421 2.95087C60.2421 2.68518 60.1741 2.44776 60.0381 2.24426C59.9022 2.04075 59.7096 1.88812 59.4717 1.78637C59.2451 1.69027 58.792 1.6394 58.1179 1.6394H58.1122Z" fill="#231F20"/>
    <path d="M74.4018 6.77784C74.4018 7.0831 74.3282 7.41662 74.1752 7.77841C74.0223 8.13454 73.7844 8.48502 73.4615 8.82985C73.133 9.17467 72.7195 9.45167 72.2153 9.67213C71.7112 9.88694 71.1221 9.99435 70.448 9.99435C69.9382 9.99435 69.4737 9.94912 69.0545 9.84737C68.6353 9.75127 68.2558 9.59864 67.9159 9.39514C67.5761 9.19163 67.2589 8.92029 66.9756 8.58677C66.7207 8.28152 66.4998 7.94234 66.3242 7.56925C66.1486 7.19616 66.007 6.7948 65.9164 6.36518C65.8257 5.94121 65.7804 5.48898 65.7804 5.00848C65.7804 4.22838 65.8937 3.53307 66.1203 2.92256C66.3469 2.30639 66.6698 1.78067 67.0946 1.34539C67.5194 0.910119 68.0122 0.576597 68.5787 0.344828C69.1451 0.118711 69.7512 0 70.3913 0C71.173 0 71.8698 0.158283 72.4815 0.469193C73.0933 0.780103 73.5635 1.1645 73.8863 1.62238C74.2092 2.08027 74.3735 2.51555 74.3735 2.92256C74.3735 3.14867 74.2942 3.34652 74.1356 3.51611C73.977 3.6857 73.7844 3.77049 73.5635 3.77049C73.3142 3.77049 73.1273 3.71396 72.997 3.59525C72.8667 3.47654 72.7308 3.27303 72.5778 2.98474C72.3229 2.50424 72.0227 2.14811 71.6772 1.91068C71.3317 1.67326 70.9068 1.55455 70.4027 1.55455C69.5983 1.55455 68.9582 1.85981 68.4767 2.47032C68.0009 3.08084 67.763 3.94573 67.763 5.07066C67.763 5.8225 67.8706 6.44432 68.0802 6.94177C68.2898 7.43923 68.59 7.81232 68.9752 8.06105C69.3604 8.30413 69.8136 8.42849 70.3347 8.42849C70.8955 8.42849 71.3713 8.28717 71.7622 8.01018C72.153 7.73318 72.4476 7.32052 72.6458 6.78349C72.7308 6.52911 72.8327 6.31996 72.9574 6.16167C73.082 6.00339 73.2802 5.9186 73.5521 5.9186C73.7844 5.9186 73.9826 5.99774 74.1526 6.16167C74.3169 6.32561 74.4018 6.52346 74.4018 6.76654V6.77784Z" fill="#231F20"/>
    <path d="M77.5456 1.19269V8.21926H81.5164C81.8336 8.21926 82.0772 8.2984 82.2471 8.45103C82.4171 8.60366 82.502 8.79585 82.502 9.02762C82.502 9.25939 82.4171 9.45725 82.2528 9.60422C82.0885 9.7512 81.8393 9.82468 81.5221 9.82468H76.7922C76.3674 9.82468 76.0615 9.72859 75.8746 9.54204C75.6876 9.35549 75.5913 9.05024 75.5913 8.62627V1.19269C75.5913 0.796985 75.682 0.503034 75.8576 0.305182C76.0332 0.10733 76.2711 0.0112305 76.56 0.0112305C76.8489 0.0112305 77.0924 0.10733 77.2737 0.305182C77.455 0.503034 77.5456 0.796984 77.5456 1.19834V1.19269Z" fill="#231F20"/>
    <path d="M87.3733 0.0112305C88.376 0.0112305 89.237 0.214736 89.9564 0.621746C90.6757 1.02876 91.2195 1.60535 91.5877 2.35153C91.9559 3.09772 92.1429 3.97957 92.1429 4.99144C92.1429 5.73763 92.0409 6.41598 91.837 7.02649C91.633 7.637 91.3328 8.16838 90.925 8.61496C90.5228 9.06154 90.0243 9.40637 89.4352 9.64379C88.8461 9.88121 88.172 9.99992 87.4073 9.99992C86.6426 9.99992 85.9742 9.88121 85.3738 9.63248C84.7733 9.38941 84.2748 9.04458 83.8783 8.60365C83.4761 8.16273 83.1759 7.6257 82.972 7.00388C82.7681 6.38206 82.6661 5.70936 82.6661 4.98014C82.6661 4.25091 82.7737 3.5556 82.9833 2.93944C83.1986 2.31762 83.5045 1.7919 83.9123 1.35662C84.3145 0.921349 84.8073 0.587828 85.3908 0.356058C85.9742 0.124289 86.6313 0.0112305 87.3733 0.0112305ZM90.1603 4.97448C90.1603 4.26787 90.047 3.65736 89.8147 3.13729C89.5882 2.61722 89.2596 2.22717 88.8348 1.96148C88.4099 1.6958 87.9228 1.56013 87.3733 1.56013C86.9825 1.56013 86.6199 1.63362 86.2857 1.78059C85.9515 1.92757 85.6683 2.14238 85.4304 2.42502C85.1925 2.70767 84.9999 3.0638 84.864 3.50473C84.728 3.94 84.6544 4.4318 84.6544 4.97448C84.6544 5.51716 84.7223 6.02027 84.864 6.4612C85.0056 6.90213 85.1982 7.26957 85.4531 7.56352C85.708 7.85747 85.9969 8.07228 86.3254 8.21926C86.6539 8.36623 87.0108 8.43407 87.4073 8.43407C87.9058 8.43407 88.3703 8.3097 88.7895 8.06097C89.2086 7.81225 89.5428 7.42219 89.7921 6.90213C90.0413 6.38206 90.1659 5.73763 90.1659 4.97448H90.1603Z" fill="#231F20"/>
    <path d="M93.0207 5.83942V1.19838C93.0207 0.802674 93.1114 0.508723 93.287 0.310871C93.4626 0.113019 93.7005 0.0169192 93.9894 0.0169192C94.2783 0.0169192 94.5332 0.113019 94.7144 0.310871C94.8957 0.508723 94.9807 0.802674 94.9807 1.19838V5.94682C94.9807 6.4895 95.043 6.93608 95.1619 7.29787C95.2809 7.65966 95.4961 7.9423 95.8077 8.14015C96.1136 8.33801 96.5497 8.43976 97.0992 8.43976C97.8639 8.43976 98.4077 8.23625 98.7249 7.82924C99.0421 7.42223 99.2007 6.80607 99.2007 5.98074V1.19273C99.2007 0.791369 99.2914 0.497417 99.467 0.299565C99.6426 0.101713 99.8805 0.00561523 100.175 0.00561523C100.47 0.00561523 100.707 0.101713 100.889 0.299565C101.07 0.497417 101.161 0.791369 101.161 1.19273V5.83377C101.161 6.59126 101.087 7.21873 100.94 7.72184C100.792 8.22495 100.515 8.67153 100.107 9.05027C99.7558 9.37814 99.348 9.60991 98.8778 9.76254C98.4134 9.90951 97.8639 9.98866 97.2408 9.98866C96.4988 9.98866 95.8587 9.90951 95.3205 9.75123C94.7824 9.59295 94.3462 9.34422 94.0064 9.00505C93.6665 8.67153 93.4173 8.23625 93.2587 7.71619C93.1 7.19046 93.0207 6.56299 93.0207 5.83377V5.83942Z" fill="#231F20"/>
    <path d="M103.681 0.175369H106.236C106.899 0.175369 107.471 0.237549 107.947 0.361914C108.423 0.486278 108.853 0.712395 109.238 1.05157C110.247 1.91081 110.751 3.22229 110.751 4.97469C110.751 5.55694 110.7 6.08266 110.598 6.56316C110.496 7.04365 110.343 7.47328 110.128 7.85767C109.912 8.24207 109.646 8.5869 109.318 8.8865C109.057 9.11827 108.774 9.30482 108.468 9.44614C108.162 9.58746 107.828 9.68356 107.477 9.74009C107.126 9.79662 106.723 9.82489 106.282 9.82489H103.727C103.37 9.82489 103.104 9.77401 102.922 9.66095C102.741 9.54789 102.622 9.40092 102.571 9.20872C102.515 9.01087 102.486 8.76214 102.486 8.44558V1.36248C102.486 0.938511 102.583 0.633254 102.77 0.446708C102.956 0.260162 103.262 0.164062 103.687 0.164062L103.681 0.175369ZM104.441 1.72426V8.27599H105.925C106.253 8.27599 106.508 8.27034 106.689 8.24772C106.871 8.22511 107.063 8.18554 107.261 8.11771C107.46 8.04987 107.63 7.94812 107.777 7.82376C108.434 7.26977 108.763 6.32008 108.763 4.96338C108.763 4.01369 108.621 3.29578 108.332 2.82093C108.043 2.34609 107.686 2.04648 107.267 1.91646C106.842 1.78645 106.332 1.72426 105.738 1.72426H104.446H104.441Z" fill="#231F20"/>
</svg>
