<svg width="30" height="30" viewBox="0 0 30 30" fill="none" xmlns="http://www.w3.org/2000/svg">
<g id="Group 91">
<g id="Clip path group">
<mask id="mask0_2125_9123" style="mask-type:luminance" maskUnits="userSpaceOnUse" x="0" y="0" width="30" height="30">
<g id="clippath">
<path id="Vector" d="M30 0H0V30H30V0Z" fill="white"/>
</g>
</mask>
<g mask="url(#mask0_2125_9123)">
<g id="Group">
<g id="Group_2">
<path id="Vector_2" d="M15 30C23.2833 30 30 23.2833 30 15C30 6.71667 23.2833 0 15 0C6.71667 0 0 6.71667 0 15C0 23.2833 6.71667 30 15 30Z" fill="#F0F0F0"/>
<path id="Vector_3" d="M20.2167 14.9999C20.2167 16.2999 17.8833 19.5665 15 19.5665C12.1167 19.5665 9.78333 16.2999 9.78333 14.9999C9.78333 12.1165 12.1167 9.7832 15 9.7832C17.8833 9.7832 20.2167 12.1165 20.2167 14.9999Z" fill="#D80027"/>
<path id="Vector_4" d="M20.2167 15C20.2167 17.8833 17.8833 20.2167 15 20.2167C12.1167 20.2167 9.78333 17.8833 9.78333 15" fill="#0052B4"/>
<path id="Vector_5" d="M20.5333 19.6167L21.9167 18.2334L22.8333 19.1501L21.45 20.5334L20.5333 19.6167Z" fill="black"/>
<path id="Vector_6" d="M18.2167 21.9165L19.6 20.5332L20.5333 21.4499L19.15 22.8332L18.2167 21.9165Z" fill="black"/>
<path id="Vector_7" d="M23.3 22.3833L24.6834 21L25.6 21.9167L24.2167 23.3L23.3 22.3833Z" fill="black"/>
<path id="Vector_8" d="M20.9833 24.6831L22.3666 23.2998L23.2999 24.2165L21.9166 25.5998L20.9833 24.6831Z" fill="black"/>
<path id="Vector_9" d="M21.9166 21L23.3 19.6167L24.2166 20.5334L22.8333 21.9167L21.9166 21Z" fill="black"/>
<path id="Vector_10" d="M19.6 23.2998L20.9833 21.9165L21.9166 22.8332L20.5333 24.2165L19.6 23.2998Z" fill="black"/>
<path id="Vector_11" d="M23.3 10.3832L19.6167 6.69987L20.55 5.7832L24.2334 9.46654L23.3167 10.3832H23.3Z" fill="black"/>
<path id="Vector_12" d="M19.6166 9.46699L18.2333 8.08366L19.1666 7.16699L20.5499 8.55033L19.6166 9.46699Z" fill="black"/>
<path id="Vector_13" d="M21.9167 11.7668L20.5333 10.3835L21.45 9.4668L22.8333 10.8501L21.9167 11.7668Z" fill="black"/>
<path id="Vector_14" d="M22.3833 6.70039L21 5.31706L21.9333 4.40039L23.3167 5.78372L22.3833 6.70039Z" fill="black"/>
<path id="Vector_15" d="M24.6834 9.0002L23.3 7.61686L24.2167 6.7002L25.6 8.08353L24.6834 9.0002Z" fill="black"/>
<path id="Vector_16" d="M5.31669 21L9.00002 24.6833L8.08336 25.6L4.40002 21.9167L5.33336 21H5.31669Z" fill="black"/>
<path id="Vector_17" d="M9.00004 21.9165L10.3834 23.2998L9.46671 24.2165L8.08337 22.8332L9.00004 21.9165Z" fill="black"/>
<path id="Vector_18" d="M6.70006 19.6167L8.08339 21L7.15006 21.9167L5.76672 20.5334L6.70006 19.6167Z" fill="black"/>
<path id="Vector_19" d="M8.08329 18.2334L11.7666 21.9167L10.85 22.8334L7.16663 19.1501L8.09996 18.2334H8.08329Z" fill="black"/>
<path id="Vector_20" d="M9.00002 5.31706L5.31669 9.00039L4.40002 8.08372L8.08336 4.40039L9.00002 5.31706Z" fill="black"/>
<path id="Vector_21" d="M10.3834 6.69987L6.70006 10.3832L5.76672 9.46654L9.45006 5.7832L10.3667 6.69987H10.3834Z" fill="black"/>
<path id="Vector_22" d="M11.7667 8.08366L8.08336 11.767L7.15002 10.8503L10.8334 7.16699L11.75 8.08366H11.7667Z" fill="black"/>
</g>
</g>
</g>
</g>
</g>
</svg>
