<svg width="24" height="24" viewBox="0 0 24 24" fill="none" xmlns="http://www.w3.org/2000/svg">
    <path fill-rule="evenodd" clip-rule="evenodd" d="M12 3.75C10.067 3.75 8.5 5.317 8.5 7.25C8.5 9.183 10.067 10.75 12 10.75C13.933 10.75 15.5 9.183 15.5 7.25C15.5 5.317 13.933 3.75 12 3.75ZM6.5 7.25C6.5 4.21243 8.96243 1.75 12 1.75C15.0376 1.75 17.5 4.21243 17.5 7.25C17.5 10.2876 15.0376 12.75 12 12.75C8.96243 12.75 6.5 10.2876 6.5 7.25Z" fill="#333C47" fill-opacity="0.6"/>
    <path fill-rule="evenodd" clip-rule="evenodd" d="M12 16.25C8.68629 16.25 6 18.9363 6 22.25H4C4 17.8317 7.58172 14.25 12 14.25C16.4183 14.25 20 17.8317 20 22.25H18C18 18.9363 15.3137 16.25 12 16.25Z" fill="#333C47" fill-opacity="0.6"/>
</svg>
