<svg width="76" height="76" viewBox="0 0 76 76" fill="none" xmlns="http://www.w3.org/2000/svg">
<rect width="76" height="76" rx="24" fill="#333C47" fill-opacity="0.05"/>
<rect x="0.5" y="0.5" width="75" height="75" rx="23.5" stroke="#333C47" stroke-opacity="0.05"/>
<path d="M15.2135 35L15.9693 32.5039H20.232L20.9967 35H24.6002L20.3814 22.2734H15.8287L11.5924 35H15.2135ZM16.7428 29.9727L18.0436 25.7012H18.149L19.4586 29.9727H16.7428ZM25.5058 35H34.0312V32.293H28.8457V22.2734H25.5058V35ZM35.1126 35H43.638V32.293H38.4525V22.2734H35.1126V35ZM51.6192 22.2734H48.2793V35H51.6192V22.2734ZM63.933 22.2734H60.5932V29.1113H60.4877L55.8295 22.2734H52.9818V35H56.3217V28.127H56.4096L61.1381 35H63.933V22.2734Z" fill="#4B6FB5"/>
<path d="M33.2614 51.6367C33.2614 47.4004 30.5455 45.0977 27.109 45.0977C23.6373 45.0977 20.9479 47.4004 20.9391 51.6367C20.9479 55.8467 23.6373 58.1758 27.109 58.1758C30.5455 58.1758 33.2614 55.873 33.2614 51.6367ZM24.3844 51.6367C24.3844 49.29 25.3512 48.0156 27.109 48.0156C28.8493 48.0156 29.8248 49.29 29.8161 51.6367C29.8248 53.9746 28.8493 55.249 27.109 55.2578C25.3512 55.249 24.3844 53.9746 24.3844 51.6367ZM45.4873 45.2734H42.1475V52.1113H42.042L37.3838 45.2734H34.5361V58H37.876V51.127H37.9639L42.6924 58H45.4873V45.2734ZM46.85 58H55.9203V55.293H50.1898V52.9902H55.4632V50.2832H50.1898V47.9805H55.9379V45.2734H46.85V58Z" fill="#F0A7C9"/>
</svg>
