<svg width="76" height="76" viewBox="0 0 76 76" fill="none" xmlns="http://www.w3.org/2000/svg">
<rect width="76" height="76" rx="24" fill="#333C47" fill-opacity="0.05"/>
<rect x="0.5" y="0.5" width="75" height="75" rx="23.5" stroke="#333C47" stroke-opacity="0.05"/>
<g clip-path="url(#clip0_1_1009)">
<path d="M46.0895 23.238H29.881V52.8209H46.0895V23.238Z" fill="white"/>
<path d="M45.9714 23.3856V52.6732H30.0286V23.3856H45.9714ZM46.2667 23.0903H29.7333V52.9684H46.2667V23.0903Z" fill="#E8ECEF"/>
<path d="M62.6229 23.238H46.4143V52.8209H62.6229V23.238Z" fill="white"/>
<path d="M62.4752 23.3856V52.6732H46.5619V23.3856H62.4752ZM62.7705 23.0903H46.2667V52.9684H62.7705V23.0903Z" fill="#E8ECEF"/>
<path d="M29.5857 23.238H13.3771V52.8209H29.5857V23.238Z" fill="white"/>
<path d="M29.4381 23.3856V52.6732H13.5248V23.3856H29.4381ZM29.7333 23.0903H13.2295V52.9684H29.7333V23.0903Z" fill="#E8ECEF"/>
<path d="M46.2371 13.2295H29.7333V25.3047H46.2371V13.2295Z" fill="#F3A734"/>
<path d="M56.2752 13.2295H46.2667V25.3047H62.7705V19.7247C62.7705 16.1228 59.8771 13.2295 56.2752 13.2295Z" fill="#708DC7"/>
<path d="M29.7333 13.2295H19.7248C16.1229 13.2295 13.2295 16.1523 13.2295 19.7247V25.2752H29.7333V13.2295Z" fill="#F9D96D"/>
<path d="M46.0895 53.1162H29.881V62.6229H46.0895V53.1162Z" fill="white"/>
<path d="M45.9714 53.2637V62.4752H30.0286V53.2637H45.9714ZM46.2667 52.9685H29.7333V62.7704H46.2667V52.9685Z" fill="#E8ECEF"/>
<path d="M46.4143 62.6229V53.1162H62.6229V56.2753C62.6229 59.7886 59.7886 62.6229 56.2753 62.6229H46.4143Z" fill="white"/>
<path d="M62.4752 53.2637V56.2752C62.4752 59.6999 59.7 62.4752 56.2752 62.4752H46.5619V53.2637H62.4752ZM62.7705 52.9685H46.2667V62.7704H56.2752C59.8771 62.7704 62.7705 59.8476 62.7705 56.2752V52.9685Z" fill="#E8ECEF"/>
<path d="M19.7248 62.6229C16.2114 62.6229 13.3771 59.7886 13.3771 56.2753V53.1162H29.5857V62.6229H19.7248Z" fill="white"/>
<path d="M29.4381 53.2637V62.4752H19.7248C16.3 62.4752 13.5248 59.6999 13.5248 56.2752V53.2637H29.4381ZM29.7333 52.9685H13.2295V56.2752C13.2295 59.8771 16.1524 62.7704 19.7248 62.7704H29.7333V52.9685Z" fill="#E8ECEF"/>
</g>
<defs>
<clipPath id="clip0_1_1009">
<rect x="7" y="7" width="62" height="62" rx="16" fill="white"/>
</clipPath>
</defs>
</svg>
