<svg width="198" height="198" viewBox="0 0 198 198" fill="none" xmlns="http://www.w3.org/2000/svg">
<circle cx="99" cy="99" r="99" fill="#FFF4D7"/>
<mask id="mask0_1_1149" style="mask-type:alpha" maskUnits="userSpaceOnUse" x="0" y="0" width="198" height="198">
<circle cx="99" cy="99" r="99" fill="#FFF4D7"/>
</mask>
<g mask="url(#mask0_1_1149)">
<path d="M149.634 96.6371C147.567 88.2984 143.704 80.4748 138.299 73.6765C128.456 60.8902 112.417 55.6661 96.4917 56.4516C82.663 57.1274 68.1542 61.9314 59.4829 72.8911C49.1491 86.0062 49.2436 104.601 47.7889 120.383C46.5295 134.631 45.7108 148.921 45.333 163.254C45.1818 200.067 44.3128 209.218 46.1831 217H151.599C153.03 208.824 154.008 200.581 154.527 162.304C155.908 140.302 154.262 118.22 149.634 96.6371Z" fill="#F3BED8"/>
<path d="M98.1544 118.5C98.1544 118.5 94.3761 156.969 98.1544 162.577C98.7637 162.779 99.4272 162.767 100.028 162.543C100.63 162.32 101.13 161.898 101.442 161.353C102.443 159.398 98.6645 151.836 101.442 119.852C101.442 119.852 123.923 125.222 129.779 111.541C129.779 111.541 131.555 103.961 123.469 104.71C115.384 105.458 102.197 110.427 100.176 114.445C97.9466 111.109 94.8114 108.429 91.113 106.699C87.4146 104.969 83.2955 104.255 79.206 104.636C79.206 104.636 73.4063 104.929 72.6317 109.331C71.8572 113.733 73.8975 118.135 82.2476 118.464C90.5977 118.793 98.1544 118.5 98.1544 118.5Z" fill="#F5F9EC"/>
<path d="M89.62 82.1661C89.6906 80.4612 88.9611 79.0487 87.9908 79.0112C87.0205 78.9737 86.1767 80.3253 86.1062 82.0302C86.0356 83.7351 86.7651 85.1476 87.7354 85.1852C88.7057 85.2227 89.5495 83.871 89.62 82.1661Z" fill="#4B6FB6"/>
<path d="M109.81 82.8427C109.877 81.139 109.144 79.7293 108.174 79.6941C107.205 79.6589 106.365 81.0115 106.299 82.7152C106.233 84.4189 106.965 85.8286 107.935 85.8637C108.905 85.8989 109.744 84.5464 109.81 82.8427Z" fill="#4B6FB6"/>
<path d="M77.0526 130.249C77.0526 130.249 106.108 125.207 105.844 140.021C105.652 142.963 104.422 145.753 102.359 147.924C100.295 150.095 97.5245 151.516 94.5085 151.949C83.3813 154.013 80.113 154.232 80.113 154.232" fill="#F3BED8"/>
<path d="M97.3612 130.741C99.0998 133.376 99.8098 136.523 99.3637 139.619C98.4368 142.978 96.3588 145.933 93.4695 148.003C90.42 150.273 87.0559 152.117 83.4758 153.483C82.8145 153.757 82.1344 154.012 81.4543 154.231C83.3435 154.012 87.2163 153.446 94.4518 152.094C97.472 151.678 100.25 150.265 102.316 148.094C104.382 145.924 105.608 143.129 105.787 140.185C105.938 134.851 102.197 132.093 97.3612 130.741Z" fill="#F1A8CA"/>
</g>
</svg>
