<svg width="260" height="76" viewBox="0 0 260 76" fill="none" xmlns="http://www.w3.org/2000/svg">
<rect width="260" height="76" rx="24" fill="#333C47" fill-opacity="0.05"/>
<mask id="mask0_1_1013" style="mask-type:alpha" maskUnits="userSpaceOnUse" x="0" y="0" width="260" height="76">
<rect width="260" height="76" rx="24" fill="#FA4F38"/>
</mask>
<g mask="url(#mask0_1_1013)">
<path d="M128 9.99714C128.597 9.84 129.226 9.68286 129.823 9.52571C129.949 9.49429 130.2 9.43143 130.231 9.36857C130.514 8.26857 131.269 8.89714 131.803 8.92857C132.746 7.70286 133.814 8.83429 134.694 8.74C133.877 7.67143 132.903 6.69714 132.243 5.50286C131.709 4.52857 131.52 3.33429 131.237 2.20286C131.08 1.63714 131.049 1.07143 130.954 0.505714C131.457 0.631428 131.96 0.882858 132.463 0.851429C133.029 0.820001 133.531 1.54286 134.097 0.914285C134.129 0.882857 134.254 0.882857 134.286 0.914285C135.071 1.82571 136.486 1.44857 137.303 2.39143C137.994 3.17714 138.843 3.80572 139.754 4.65429C139.471 3.08286 139.22 1.73143 138.969 0.411428C138.811 -0.342857 138.937 -0.625714 139.66 -0.94C139.629 -1.44286 139.534 -1.94571 139.534 -2.44857C139.534 -2.60571 139.597 -2.92 139.691 -2.95143C140.603 -3.36 140.351 -4.30286 140.666 -4.99429C140.823 -5.34 140.98 -5.65429 141.169 -6C141.451 -5.81143 141.797 -5.65429 142.017 -5.40286C142.929 -4.42857 143.84 -3.42286 144.72 -2.41714C144.814 -2.29143 144.909 -2.16571 144.94 -2.00857C145.411 -0.374286 145.851 1.26 146.291 2.83143C146.606 2.14 146.951 1.22857 147.391 0.348571C147.611 -0.0599999 148.051 -0.311428 148.397 -0.625714C148.554 -0.782857 148.774 -0.908572 148.931 -1.06571C149.309 -1.47429 149.34 -2.19714 150.283 -2.07143C150.66 -2.00857 151.163 -2.79429 151.634 -3.17143C151.917 -3.39143 152.231 -3.61143 152.766 -3.98857C152.829 -2.35429 152.609 -0.908572 153.049 0.285714C153.614 1.82571 152.294 2.86286 152.546 4.24571C152.609 4.59143 152.231 5 151.98 5.56572C152.514 5.15714 152.923 4.81143 153.331 4.52857C153.551 4.37143 153.897 4.15143 154.086 4.21429C154.777 4.49714 155.311 4.15143 155.877 3.93143C156.097 3.83714 156.474 4.18286 156.757 4.18286C157.291 4.18286 157.826 4.02571 158.36 4.02571C158.58 4.02571 158.863 4.08857 159.02 4.24571C159.114 4.34 159.051 4.65429 158.957 4.84286C158.329 6.1 157.857 7.48286 157.009 8.61429C156.254 9.65143 155.091 10.4057 154.243 11.16C155.406 11.7886 156.694 12.48 158.109 13.2657C158.36 14.0514 157.354 13.9886 156.977 14.3343C156.569 14.7114 156.034 14.9314 155.5 15.1514C154.934 15.3714 154.369 15.5914 153.771 15.7171C153.206 15.8429 152.609 15.9057 151.949 16.0314C152.231 16.7229 152.514 17.4143 152.829 18.0743C153.143 18.6714 153.143 19.0171 152.326 19.0171C151.037 18.9857 149.654 19.3314 148.523 18.5771C147.674 18.0114 147.077 17.1 146.386 16.3457C146.291 16.2514 146.26 16.1571 145.977 16.0629C146.071 16.7543 146.134 17.4771 146.26 18.1686C146.731 21.06 147.234 23.9829 147.737 26.8743C147.831 27.4086 147.8 27.9743 147.989 28.4457C148.303 29.2 147.926 29.5457 147.329 29.7029C146.637 29.8914 146.637 29.3257 146.574 28.8229C145.883 24.8314 145.191 20.84 144.5 16.8486C144.469 16.66 144.5 16.4714 144.311 16.22C144.123 16.8486 143.997 17.54 143.714 18.1371C143.431 18.7657 143.054 19.4257 142.583 19.8971C142.111 20.3686 141.483 20.7771 140.854 21.0286C140.226 21.28 139.503 21.3429 138.843 21.5C138.843 20.4629 138.843 19.5829 138.843 18.7029C137.774 18.8914 136.643 19.2371 135.543 19.2371C134.474 19.2371 133.374 18.86 132.054 18.6086C133.091 17.1943 133.814 15.6229 135.417 14.8057C132.086 14.68 128.189 11.2229 128 9.99714Z" fill="#F9D96D"/>
<path d="M195.06 16C195.217 16.6914 195.469 17.5086 195.531 18.3257C195.783 20.9029 195.814 23.48 195.437 26.0886C194.966 29.3257 193.897 32.3429 192.609 35.2971C191.194 38.5029 188.931 40.86 185.914 42.6514C183.84 43.8771 181.703 44.8829 179.314 45.26C177.46 45.5429 175.669 45.1971 173.94 44.3171C172.651 45.5743 171.331 46.7686 170.074 48.0257C169.383 48.7486 168.786 48.7171 168 48.0257C168.189 47.7429 168.377 47.3971 168.629 47.1457C169.854 45.9514 171.143 44.7886 172.337 43.5629C172.557 43.3429 172.714 42.8714 172.651 42.5571C171.426 38 172.997 34.2914 176.077 30.9914C178.466 28.4457 181.326 26.5914 184.374 24.9257C187.486 23.1971 190.566 21.3429 193.017 18.7029C193.771 17.9171 194.369 16.9429 195.06 16Z" fill="#F3A734"/>
<path d="M135.686 42.7735C135.686 42.7735 107.937 36.8425 100.251 61.9848C92.5644 87.1271 123.179 83.1301 124.482 82.7433C125.655 82.3565 160.048 82.3565 164.477 79.5199C168.776 76.6834 173.597 52.3147 135.686 42.7735Z" fill="#F4F8EB"/>
<path d="M99.7296 66.8844C100.772 63.2742 103.377 57.7301 107.807 57.7301C109.761 57.7301 111.715 58.3747 113.669 58.3747C115.363 58.5037 117.056 58.3747 118.75 58.2458C122.137 57.9879 126.827 57.3433 129.172 54.5067C131.387 51.928 129.563 46.2549 126.176 45.6102C125.655 45.4812 125.394 44.8366 125.655 44.3208C126.176 43.2894 127.348 42.5157 128.391 42C119.662 42 105.462 44.9655 100.251 61.856C99.2084 65.3372 98.8176 68.3027 99.0782 70.7525C99.2084 69.4631 99.3387 68.1738 99.7296 66.8844Z" fill="#F3FAFD"/>
<path d="M153.534 49.865L153.664 49.9939C154.837 51.4122 155.618 52.8305 156.4 54.5067C157.703 57.73 158.224 61.2113 158.224 64.6925C158.224 67.2712 157.703 70.1078 156.4 72.4286C155.097 74.6205 153.013 75.9098 150.668 76.8124C148.193 77.7149 145.457 77.9728 142.721 78.2306C139.985 78.4885 137.38 78.8753 134.774 79.2621C129.433 80.1647 124.091 81.1961 119.011 83.0012C122.007 83.0012 124.091 82.6144 124.352 82.4855C125.524 82.0987 159.918 82.0987 164.347 79.2621C167.865 77.1992 171.643 61.0823 153.534 49.865Z" fill="#D9DAB6"/>
<path d="M112.017 53.0633C112.578 52.9356 112.837 51.9882 112.595 50.9472C112.353 49.9062 111.702 49.1658 111.141 49.2935C110.58 49.4212 110.321 50.3686 110.563 51.4096C110.805 52.4506 111.456 53.191 112.017 53.0633Z" fill="#221F1F"/>
<path d="M120.491 50.5884C121.052 50.4608 121.311 49.5134 121.069 48.4724C120.827 47.4314 120.176 46.691 119.615 46.8186C119.054 46.9463 118.795 47.8937 119.037 48.9347C119.279 49.9757 119.93 50.7161 120.491 50.5884Z" fill="#221F1F"/>
</g>
<rect x="0.5" y="0.5" width="259" height="75" rx="23.5" stroke="#333C47" stroke-opacity="0.05"/>
</svg>
