<svg width="296" height="245" viewBox="0 0 296 245" fill="none" xmlns="http://www.w3.org/2000/svg">
<mask id="mask0_1_1081" style="mask-type:alpha" maskUnits="userSpaceOnUse" x="0" y="0" width="296" height="245">
<rect width="296" height="245" fill="#208DF9"/>
</mask>
<g mask="url(#mask0_1_1081)">
<path d="M45.8039 80.6306H36.6813V110.599C36.6813 112.313 36.2942 113.617 35.5198 114.438C34.7455 115.283 33.7534 115.694 32.5435 115.694C31.3336 115.694 30.2931 115.283 29.5187 114.438C28.7444 113.593 28.3572 112.313 28.3572 110.623V80.6547H19.2346C17.807 80.6547 16.7422 80.3408 16.0405 79.7129C15.3388 79.0851 15 78.264 15 77.2257C15 76.1873 15.363 75.318 16.0889 74.6901C16.8148 74.0622 17.8554 73.7725 19.2346 73.7725H45.8523C47.3042 73.7725 48.3689 74.0864 49.0706 74.7384C49.7724 75.3663 50.1353 76.2114 50.1353 77.2498C50.1353 78.2882 49.7724 79.1092 49.0706 79.7371C48.3689 80.365 47.28 80.6789 45.8523 80.6789L45.8039 80.6306Z" fill="#333C47" fill-opacity="0.1"/>
<path d="M81.1086 80.172H62.2585V90.2901H79.6325C80.915 90.2901 81.8588 90.5799 82.4879 91.1595C83.117 91.739 83.4316 92.4876 83.4316 93.4294C83.4316 94.3712 83.117 95.1439 82.5121 95.7235C81.883 96.3031 80.9392 96.617 79.6325 96.617H62.2585V108.353H81.762C83.0687 108.353 84.0608 108.667 84.7383 109.271C85.4158 109.874 85.7304 110.695 85.7304 111.71C85.7304 112.724 85.3916 113.473 84.7383 114.076C84.0608 114.68 83.0687 114.994 81.762 114.994H59.0159C57.2011 114.994 55.8944 114.583 55.0959 113.786C54.2974 112.99 53.886 111.686 53.886 109.874V78.868C53.886 77.6605 54.0554 76.6946 54.4183 75.9219C54.7813 75.1491 55.3379 74.6179 56.088 74.2556C56.8381 73.8934 57.8302 73.7244 59.0159 73.7244H81.1086C82.4395 73.7244 83.4316 74.0141 84.085 74.6179C84.7383 75.1974 85.0529 75.9702 85.0529 76.9361C85.0529 77.902 84.7383 78.6989 84.085 79.2785C83.4316 79.8822 82.4395 80.172 81.1086 80.172Z" fill="#333C47" fill-opacity="0.1"/>
<path d="M118.833 110.309L116.849 105.142H100.056L98.0713 110.43C97.297 112.483 96.6436 113.883 96.0871 114.608C95.5547 115.332 94.6594 115.695 93.4011 115.695C92.3606 115.695 91.4169 115.308 90.6183 114.535C89.8198 113.763 89.4084 112.893 89.4084 111.927C89.4084 111.372 89.5052 110.792 89.6988 110.189C89.8924 109.585 90.207 108.764 90.6183 107.677L101.193 80.8968C101.483 80.124 101.846 79.2064 102.282 78.1197C102.693 77.0331 103.153 76.1396 103.637 75.4393C104.121 74.739 104.75 74.1594 105.524 73.7006C106.299 73.2659 107.266 73.0486 108.404 73.0486C109.541 73.0486 110.533 73.2659 111.332 73.7006C112.13 74.1353 112.735 74.7148 113.219 75.4151C113.703 76.1154 114.115 76.864 114.429 77.6609C114.768 78.4578 115.179 79.5203 115.687 80.8485L126.48 107.46C127.327 109.488 127.738 110.961 127.738 111.879C127.738 112.797 127.327 113.714 126.528 114.511C125.73 115.308 124.762 115.719 123.648 115.719C122.995 115.719 122.414 115.598 121.955 115.356C121.495 115.115 121.083 114.801 120.769 114.391C120.454 113.98 120.116 113.376 119.728 112.531C119.341 111.686 119.051 110.961 118.785 110.334L118.833 110.309ZM102.258 98.8632H114.598L108.355 81.8386L102.233 98.8632H102.258Z" fill="#333C47" fill-opacity="0.1"/>
<path d="M165.39 101.954C165.39 103.258 165.075 104.683 164.422 106.228C163.769 107.749 162.752 109.247 161.373 110.72C159.969 112.193 158.203 113.376 156.049 114.318C153.896 115.235 151.379 115.694 148.5 115.694C146.322 115.694 144.338 115.501 142.547 115.066C140.756 114.656 139.135 114.004 137.683 113.135C136.231 112.265 134.876 111.106 133.666 109.681C132.577 108.377 131.658 106.928 130.884 105.335C130.109 103.741 129.528 102.026 129.141 100.191C128.754 98.3799 128.561 96.448 128.561 94.3954C128.561 91.063 129.045 88.0927 130.012 85.4847C130.98 82.8525 132.36 80.6067 134.174 78.7473C135.989 76.8879 138.095 75.4631 140.514 74.473C142.934 73.5071 145.523 73 148.258 73C151.597 73 154.573 73.6762 157.187 75.0043C159.8 76.3325 161.808 77.9746 163.188 79.9306C164.591 81.8866 165.269 83.746 165.269 85.4847C165.269 86.4506 164.93 87.2958 164.252 88.0203C163.575 88.7447 162.752 89.1069 161.808 89.1069C160.744 89.1069 159.921 88.8655 159.389 88.3583C158.856 87.8512 158.251 86.9819 157.598 85.7503C156.509 83.6977 155.227 82.1764 153.751 81.1621C152.274 80.1479 150.46 79.6408 148.306 79.6408C144.87 79.6408 142.136 80.9448 140.079 83.5528C138.046 86.1608 137.03 89.8555 137.03 94.6611C137.03 97.8728 137.49 100.529 138.385 102.654C139.28 104.779 140.563 106.373 142.208 107.436C143.854 108.474 145.789 109.005 148.016 109.005C150.411 109.005 152.444 108.401 154.114 107.218C155.783 106.035 157.041 104.272 157.864 101.978C158.227 100.891 158.663 99.9978 159.195 99.3217C159.727 98.6455 160.574 98.2833 161.736 98.2833C162.728 98.2833 163.575 98.6214 164.301 99.3217C165.003 100.022 165.366 100.867 165.366 101.906L165.39 101.954Z" fill="#333C47" fill-opacity="0.1"/>
<path d="M179.037 78.0951V89.9036H197.113V78.0951C197.113 76.4047 197.5 75.149 198.251 74.3038C199.001 73.4586 200.017 73.0481 201.251 73.0481C202.485 73.0481 203.526 73.4586 204.3 74.3038C205.074 75.149 205.462 76.4047 205.462 78.1192V110.623C205.462 112.337 205.074 113.593 204.276 114.438C203.477 115.284 202.461 115.694 201.227 115.694C199.993 115.694 198.952 115.259 198.202 114.414C197.452 113.569 197.065 112.289 197.065 110.599V96.7376H178.989V110.599C178.989 112.313 178.602 113.569 177.803 114.414C177.005 115.259 175.988 115.67 174.754 115.67C173.52 115.67 172.48 115.235 171.73 114.39C170.98 113.545 170.592 112.265 170.592 110.575V78.0709C170.592 76.3805 170.955 75.1248 171.705 74.2796C172.456 73.4344 173.448 73.0239 174.73 73.0239C176.013 73.0239 177.005 73.4344 177.779 74.2796C178.553 75.1248 178.941 76.3805 178.941 78.0951H179.037Z" fill="#333C47" fill-opacity="0.1"/>
<path d="M238.25 80.172H219.4V90.2901H236.774C238.056 90.2901 239 90.5799 239.629 91.1595C240.258 91.739 240.573 92.4876 240.573 93.4294C240.573 94.3712 240.258 95.1439 239.653 95.7235C239.024 96.3031 238.081 96.617 236.774 96.617H219.4V108.353H238.903C240.21 108.353 241.202 108.667 241.88 109.271C242.557 109.874 242.872 110.695 242.872 111.71C242.872 112.724 242.533 113.473 241.88 114.076C241.202 114.68 240.21 114.994 238.903 114.994H216.157C214.342 114.994 213.036 114.583 212.237 113.786C211.439 112.99 211.027 111.686 211.027 109.874V78.868C211.027 77.6605 211.197 76.6946 211.56 75.9219C211.923 75.1733 212.479 74.6179 213.229 74.2556C214.004 73.9176 214.972 73.7244 216.157 73.7244H238.25C239.581 73.7244 240.573 74.0141 241.226 74.6179C241.88 75.1974 242.194 75.9702 242.194 76.9361C242.194 77.902 241.88 78.6989 241.226 79.2785C240.573 79.8822 239.581 80.172 238.25 80.172Z" fill="#333C47" fill-opacity="0.1"/>
<path d="M258.455 97.3415H255.527V110.599C255.527 112.338 255.14 113.617 254.366 114.463C253.591 115.308 252.599 115.694 251.341 115.694C250.01 115.694 248.97 115.26 248.244 114.39C247.518 113.521 247.155 112.265 247.155 110.599V78.868C247.155 77.0569 247.566 75.7528 248.365 74.956C249.163 74.1591 250.47 73.7485 252.285 73.7485H265.908C267.795 73.7485 269.393 73.821 270.723 73.99C272.054 74.1591 273.264 74.473 274.329 74.956C275.636 75.5114 276.773 76.2841 277.765 77.2983C278.757 78.3126 279.507 79.4958 280.04 80.824C280.548 82.1522 280.814 83.5769 280.814 85.0741C280.814 88.1409 279.943 90.6041 278.201 92.4393C276.458 94.2746 273.821 95.5786 270.288 96.3514C271.764 97.1483 273.192 98.3074 274.547 99.8287C275.902 101.374 277.112 103.016 278.176 104.731C279.241 106.47 280.064 108.039 280.669 109.44C281.274 110.84 281.564 111.806 281.564 112.313C281.564 112.821 281.395 113.4 281.032 113.931C280.693 114.463 280.209 114.897 279.604 115.187C278.999 115.501 278.297 115.646 277.523 115.646C276.579 115.646 275.805 115.429 275.152 114.994C274.523 114.559 273.966 114.004 273.506 113.328C273.046 112.651 272.417 111.661 271.643 110.333L268.279 104.755C267.07 102.702 266.005 101.157 265.061 100.094C264.117 99.0318 263.149 98.2832 262.182 97.8969C261.214 97.5105 259.98 97.3173 258.479 97.3173L258.455 97.3415ZM263.246 80.003H255.527V91.3285H263.029C265.037 91.3285 266.731 91.1595 268.11 90.8214C269.489 90.4833 270.53 89.8796 271.256 89.0586C271.982 88.2134 272.345 87.0784 272.345 85.6054C272.345 84.4704 272.054 83.4562 271.474 82.5868C270.893 81.7175 270.07 81.0655 269.054 80.6308C268.086 80.2203 266.15 80.003 263.27 80.003H263.246Z" fill="#333C47" fill-opacity="0.1"/>
<path d="M87.9272 158.738C87.9272 160.042 87.6126 161.466 86.9593 163.012C86.306 164.533 85.2897 166.03 83.9104 167.503C82.5069 168.976 80.7404 170.16 78.5868 171.101C76.4332 172.019 73.9167 172.478 71.0371 172.478C68.8593 172.478 66.8751 172.285 65.0844 171.85C63.2938 171.44 61.6725 170.788 60.2206 169.918C58.7688 169.049 57.4137 167.89 56.2038 166.465C55.1149 165.161 54.1712 163.712 53.421 162.118C52.6709 160.525 52.066 158.81 51.6788 156.975C51.2916 155.164 51.098 153.232 51.098 151.179C51.098 147.847 51.582 144.876 52.5499 142.268C53.5178 139.636 54.8971 137.39 56.7119 135.531C58.5268 133.672 60.632 132.247 63.0518 131.257C65.4716 130.291 68.0607 129.784 70.7951 129.784C74.1344 129.784 77.1108 130.46 79.7241 131.788C82.3375 133.116 84.3459 134.758 85.7252 136.714C87.1045 138.67 87.8062 140.53 87.8062 142.268C87.8062 143.234 87.4675 144.08 86.7899 144.804C86.1124 145.528 85.2897 145.891 84.3459 145.891C83.2812 145.891 82.4827 145.649 81.9262 145.142C81.3696 144.635 80.7888 143.766 80.1355 142.534C79.0466 140.481 77.7641 138.96 76.288 137.946C74.812 136.932 72.9971 136.424 70.8435 136.424C67.4074 136.424 64.673 137.728 62.6162 140.337C60.5836 142.945 59.5673 146.639 59.5673 151.445C59.5673 154.656 60.0271 157.313 60.9224 159.438C61.8177 161.563 63.1002 163.157 64.7456 164.219C66.3911 165.258 68.3269 165.789 70.5531 165.789C72.9487 165.789 74.9814 165.185 76.651 164.002C78.3207 162.819 79.579 161.056 80.4259 158.762C80.7888 157.675 81.2244 156.782 81.7568 156.105C82.2891 155.429 83.136 155.067 84.2975 155.067C85.2897 155.067 86.1366 155.405 86.8625 156.105C87.5643 156.806 87.9272 157.651 87.9272 158.689V158.738Z" fill="#333C47" fill-opacity="0.1"/>
<path d="M101.357 134.879V164.896H118.32C119.675 164.896 120.715 165.234 121.441 165.886C122.167 166.538 122.53 167.359 122.53 168.349C122.53 169.339 122.167 170.184 121.465 170.812C120.764 171.44 119.699 171.754 118.344 171.754H98.1387C96.3238 171.754 95.0172 171.343 94.2186 170.546C93.4201 169.749 93.0087 168.445 93.0087 166.634V134.879C93.0087 133.189 93.3959 131.933 94.146 131.088C94.8962 130.243 95.9125 129.832 97.1466 129.832C98.3807 129.832 99.4212 130.243 100.196 131.088C100.97 131.933 101.357 133.189 101.357 134.903V134.879Z" fill="#333C47" fill-opacity="0.1"/>
<path d="M143.341 129.832C147.624 129.832 151.302 130.702 154.375 132.44C157.448 134.179 159.771 136.642 161.344 139.83C162.917 143.017 163.715 146.784 163.715 151.107C163.715 154.295 163.28 157.192 162.408 159.8C161.537 162.408 160.255 164.678 158.513 166.586C156.795 168.494 154.665 169.967 152.149 170.981C149.632 171.995 146.752 172.502 143.486 172.502C140.219 172.502 137.364 171.995 134.799 170.933C132.234 169.894 130.104 168.421 128.41 166.538C126.692 164.654 125.41 162.36 124.539 159.704C123.668 157.047 123.232 154.174 123.232 151.059C123.232 147.944 123.692 144.973 124.587 142.341C125.507 139.685 126.813 137.439 128.556 135.58C130.274 133.72 132.379 132.295 134.871 131.305C137.364 130.315 140.171 129.832 143.341 129.832ZM155.246 151.035C155.246 148.016 154.762 145.408 153.77 143.186C152.802 140.965 151.398 139.298 149.584 138.163C147.769 137.028 145.688 136.449 143.341 136.449C141.671 136.449 140.122 136.763 138.694 137.391C137.267 138.019 136.057 138.936 135.041 140.144C134.024 141.351 133.202 142.872 132.621 144.756C132.04 146.615 131.726 148.716 131.726 151.035C131.726 153.353 132.016 155.502 132.621 157.386C133.226 159.269 134.049 160.839 135.137 162.094C136.226 163.35 137.46 164.268 138.864 164.896C140.267 165.524 141.792 165.813 143.486 165.813C145.615 165.813 147.599 165.282 149.39 164.22C151.181 163.157 152.608 161.491 153.673 159.269C154.738 157.047 155.27 154.295 155.27 151.035H155.246Z" fill="#333C47" fill-opacity="0.1"/>
<path d="M167.466 154.729V134.903C167.466 133.213 167.853 131.957 168.603 131.112C169.353 130.266 170.369 129.856 171.603 129.856C172.837 129.856 173.926 130.266 174.701 131.112C175.475 131.957 175.838 133.213 175.838 134.903V155.188C175.838 157.506 176.104 159.413 176.612 160.959C177.121 162.504 178.04 163.712 179.371 164.557C180.678 165.402 182.541 165.837 184.888 165.837C188.155 165.837 190.478 164.968 191.833 163.229C193.188 161.49 193.865 158.858 193.865 155.332V134.879C193.865 133.164 194.253 131.909 195.003 131.063C195.753 130.218 196.769 129.808 198.027 129.808C199.286 129.808 200.302 130.218 201.076 131.063C201.851 131.909 202.238 133.164 202.238 134.879V154.705C202.238 157.94 201.923 160.621 201.294 162.77C200.665 164.919 199.479 166.827 197.737 168.445C196.237 169.846 194.495 170.836 192.486 171.488C190.502 172.115 188.155 172.454 185.493 172.454C182.323 172.454 179.589 172.115 177.29 171.439C174.991 170.763 173.128 169.701 171.676 168.252C170.224 166.827 169.159 164.968 168.482 162.746C167.804 160.5 167.466 157.82 167.466 154.705V154.729Z" fill="#333C47" fill-opacity="0.1"/>
<path d="M213.006 130.532H223.919C226.751 130.532 229.195 130.798 231.227 131.329C233.26 131.86 235.099 132.826 236.744 134.275C241.052 137.946 243.205 143.548 243.205 151.034C243.205 153.521 242.987 155.767 242.552 157.82C242.116 159.872 241.463 161.708 240.543 163.35C239.624 164.992 238.487 166.465 237.083 167.745C235.97 168.735 234.76 169.532 233.453 170.135C232.147 170.739 230.719 171.15 229.219 171.391C227.719 171.633 226 171.753 224.113 171.753H213.2C211.675 171.753 210.538 171.536 209.764 171.053C208.989 170.57 208.481 169.942 208.263 169.121C208.021 168.276 207.9 167.214 207.9 165.861V135.603C207.9 133.792 208.312 132.488 209.11 131.691C209.909 130.894 211.216 130.484 213.03 130.484L213.006 130.532ZM216.249 137.149V165.137H222.589C223.992 165.137 225.081 165.113 225.855 165.016C226.63 164.919 227.452 164.75 228.299 164.461C229.146 164.171 229.872 163.736 230.501 163.205C233.308 160.838 234.712 156.781 234.712 150.986C234.712 146.929 234.107 143.862 232.873 141.834C231.639 139.805 230.114 138.525 228.323 137.97C226.509 137.414 224.331 137.149 221.79 137.149H216.273H216.249Z" fill="#333C47" fill-opacity="0.1"/>
<path d="M237.647 143.415C228.137 142.899 218.757 145.865 211.331 153.343C199.867 164.947 198.304 182.353 189.705 195.633C185.667 201.822 180.065 209.687 172.509 211.621C156.485 215.618 137.464 218.584 135.25 238.311C134.989 240.761 135.119 243.468 136.292 245.66C137.464 247.852 139.809 249.528 142.024 250.689C155.312 257.522 171.467 255.459 185.797 254.814C206.12 254.041 227.225 255.072 247.418 252.752C256.798 251.72 266.439 248.626 272.953 241.792C283.505 230.704 281.421 208.011 281.29 193.957C281.16 185.061 279.857 176.035 275.819 168.17C268.784 154.245 253.15 144.188 237.647 143.415Z" fill="#F0BBD6"/>
<path d="M281.421 193.957C281.29 185.061 279.987 176.035 275.949 168.17C275.298 166.881 274.516 165.592 273.734 164.431C274.646 167.912 275.037 171.652 275.428 175.262C276.209 180.935 276.34 186.608 275.819 192.41C275.428 197.052 274.516 201.564 272.953 205.948C271.91 209.043 270.347 212.137 268.132 214.587C267.22 215.618 266.178 216.392 264.745 216.65C262.661 216.908 260.706 216.263 258.752 215.618C256.668 214.845 254.583 214.2 252.369 213.942C249.633 213.555 247.027 213.169 244.292 212.782C241.816 212.395 239.341 211.879 236.866 211.879C234.651 211.75 232.436 212.008 230.222 212.395C225.922 213.169 221.623 214.845 217.976 217.165C211.071 221.549 210.55 230.446 207.423 237.279C207.032 238.053 206.12 237.666 205.86 237.021C204.557 233.54 202.342 230.446 199.085 228.641C196.219 226.965 192.962 226.449 189.705 225.804C186.97 225.288 184.104 224.773 181.889 222.839C179.023 220.389 178.241 216.134 177.199 212.782C176.938 212.008 176.808 211.106 176.678 210.332C175.375 211.106 173.942 211.75 172.509 212.008C156.485 216.005 137.464 218.971 135.25 238.698C134.989 241.147 135.119 243.855 136.292 246.047C137.464 248.239 139.809 249.915 142.024 251.075C155.312 257.909 171.467 255.846 185.797 255.201C206.12 254.428 227.225 255.459 247.418 253.138C256.798 252.107 266.439 249.012 272.953 242.179C283.635 230.704 281.681 208.011 281.421 193.957Z" fill="#EEA6C9"/>
<path d="M248.2 215.232C248.2 215.232 220.451 209.301 212.764 234.443C205.078 259.585 235.693 255.588 236.996 255.201C238.169 254.815 272.562 254.815 276.991 251.978C281.29 249.141 286.11 224.773 248.2 215.232Z" fill="#F4F8EB"/>
<path d="M212.243 239.342C213.286 235.732 215.891 230.188 220.321 230.188C222.275 230.188 224.229 230.833 226.183 230.833C227.877 230.962 229.57 230.833 231.264 230.704C234.651 230.446 239.341 229.801 241.686 226.965C243.901 224.386 242.077 218.713 238.69 218.068C238.169 217.939 237.908 217.295 238.169 216.779C238.69 215.747 239.862 214.974 240.904 214.458C232.176 214.458 217.976 217.424 212.765 234.314C211.722 237.795 211.331 240.761 211.592 243.21C211.722 241.921 211.853 240.632 212.243 239.342Z" fill="#F3FAFD"/>
<path d="M266.048 222.323L266.178 222.452C267.351 223.87 268.132 225.289 268.914 226.965C270.217 230.188 270.738 233.669 270.738 237.15C270.738 239.729 270.217 242.566 268.914 244.887C267.611 247.078 265.527 248.368 263.182 249.27C260.707 250.173 257.971 250.431 255.235 250.689C252.499 250.947 249.894 251.333 247.288 251.72C241.947 252.623 236.605 253.654 231.524 255.459C234.521 255.459 236.605 255.072 236.866 254.944C238.038 254.557 272.431 254.557 276.861 251.72C280.378 249.657 284.156 233.54 266.048 222.323Z" fill="#D9DAB6"/>
<path d="M204.427 242.308C202.863 232.38 188.272 229.543 188.272 229.543C188.272 229.543 178.241 229.93 176.548 220.389C175.505 214.329 171.858 203.241 165.474 196.407C157.657 187.897 140.852 186.092 133.817 196.536C125.609 208.656 116.881 250.817 138.897 254.428C147.365 255.846 156.745 254.943 165.344 254.943C175.766 254.686 207.423 260.617 204.427 242.308Z" fill="#F7C833"/>
<path d="M218.431 160.128C219.069 158.312 218.759 156.556 217.74 156.205C216.72 155.855 215.377 157.043 214.74 158.859C214.102 160.675 214.412 162.431 215.431 162.782C216.45 163.133 217.794 161.944 218.431 160.128Z" fill="#221F1F"/>
<path d="M239.804 167.49C240.442 165.674 240.132 163.918 239.113 163.567C238.093 163.217 236.75 164.405 236.113 166.221C235.475 168.037 235.785 169.793 236.804 170.144C237.823 170.495 239.167 169.307 239.804 167.49Z" fill="#221F1F"/>
<path d="M234.912 175.906C231.655 179.388 226.444 180.806 221.623 179.13C216.803 177.454 213.676 173.199 213.155 168.428" stroke="#221F1F" stroke-width="2.279" stroke-miterlimit="10" stroke-linecap="round" stroke-linejoin="round"/>
<path d="M149.905 203.092C150.439 202.881 150.547 201.905 150.146 200.914C149.745 199.922 148.986 199.29 148.452 199.502C147.918 199.714 147.81 200.689 148.211 201.681C148.612 202.672 149.371 203.304 149.905 203.092Z" fill="#221F1F"/>
<path d="M157.724 199.374C158.258 199.162 158.366 198.186 157.964 197.195C157.563 196.203 156.805 195.571 156.27 195.783C155.736 195.995 155.628 196.97 156.029 197.962C156.431 198.953 157.189 199.586 157.724 199.374Z" fill="#221F1F"/>
<path d="M224.531 225.521C225.092 225.393 225.351 224.446 225.109 223.405C224.867 222.364 224.216 221.624 223.655 221.751C223.094 221.879 222.835 222.826 223.077 223.867C223.319 224.908 223.97 225.649 224.531 225.521Z" fill="#221F1F"/>
<path d="M233.005 223.046C233.566 222.919 233.825 221.971 233.583 220.93C233.341 219.889 232.69 219.149 232.129 219.276C231.568 219.404 231.309 220.351 231.551 221.392C231.793 222.433 232.444 223.174 233.005 223.046Z" fill="#221F1F"/>
<path d="M225.401 150.635C229.57 152.956 234.651 153.73 239.211 154.374C241.686 154.632 244.292 155.019 246.637 154.245C247.939 153.858 248.982 152.956 248.982 151.538C248.982 149.99 247.158 148.83 246.376 147.67C246.116 147.283 246.376 146.767 246.637 146.509C247.288 146.122 248.2 145.865 248.982 145.736C245.334 144.446 241.426 143.673 237.648 143.544C232.306 143.286 226.965 144.059 222.014 146.122C221.884 148.056 223.578 149.604 225.401 150.635Z" fill="#F2CEE2"/>
<path d="M136.031 195.633C136.422 195.376 137.204 195.633 137.334 196.149C138.116 200.662 144.89 196.794 147.105 195.376C149.059 194.215 152.186 191.894 151.795 189.316C144.89 188.413 137.855 190.347 133.817 196.278C133.426 196.794 133.035 197.439 132.774 198.083C133.817 197.31 134.859 196.407 136.031 195.633Z" fill="#F8D86C"/>
<path d="M204.297 242.179C203.254 235.603 196.48 232.122 192.051 230.575C193.223 231.477 194.396 232.251 195.307 233.282C197.001 235.216 197.652 237.924 197.131 240.374C196.219 245.531 190.748 248.11 186.449 249.915C180.847 252.236 174.984 253.654 169.122 254.557C168.861 254.557 168.47 254.686 168.21 254.686C180.456 255.459 207.032 259.198 204.297 242.179Z" fill="#F2A634"/>
<path d="M208.465 42.8723C208.465 20.3087 189.966 2.12891 167.298 2.12891C144.63 2.12891 126 20.3087 126 42.8723C126 65.4359 144.499 83.6157 167.168 83.6157C169.252 83.6157 171.206 83.4868 173.16 83.2289L173.421 85.9365C173.421 85.9365 175.114 87.4838 176.287 86.4523C177.459 85.4208 178.762 84.9051 177.981 83.7447C177.72 83.4868 177.329 83.1 176.938 82.5842C195.047 78.0715 208.465 62.0836 208.465 42.8723Z" fill="#7DCFDF"/>
<path d="M126.782 39.1332C127.954 33.3312 130.169 27.1423 134.859 23.1453C135.25 22.7585 136.162 22.8874 136.292 23.5321C136.552 25.4661 136.422 27.4002 137.074 29.3342C137.725 31.2682 139.549 32.1707 141.633 32.1707C145.02 32.1707 148.277 30.3657 150.883 28.4316C152.837 27.0134 154.27 25.2083 155.573 23.1453C157.657 19.4062 160.393 12.3148 154.531 10.5097C153.879 10.2518 153.619 9.34929 154.27 8.96248C157.918 6.77059 161.305 3.93402 165.344 2.25787C165.474 2.12893 165.604 2.12893 165.865 2C143.718 2.77361 126 20.6955 126 42.7434C126 43.2591 126 43.9038 126 44.4196C126.261 42.6145 126.391 40.9383 126.782 39.1332Z" fill="#C3E7EF"/>
<path d="M208.465 42.7433C208.465 34.3625 205.86 26.4975 201.561 20.0508C202.733 23.7899 202.994 27.6579 202.603 31.6549C201.821 39.6489 198.695 47.6428 193.223 53.5738C189.705 57.4419 185.276 60.7942 180.847 63.7597C176.157 66.8541 171.076 69.3039 165.735 71.109C157.267 74.0745 148.277 74.5902 139.549 73.043C146.844 79.6187 156.615 83.6156 167.298 83.6156C169.382 83.6156 171.336 83.4867 173.291 83.2289L173.551 85.9365C173.551 85.9365 175.245 87.4837 176.417 86.4522C177.59 85.4207 178.893 84.905 178.111 83.7446C177.85 83.4867 177.459 83.0999 177.069 82.5842C195.047 78.0715 208.465 61.9546 208.465 42.7433Z" fill="#4DB2C0"/>
</g>
</svg>
