<svg width="76" height="76" viewBox="0 0 76 76" fill="none" xmlns="http://www.w3.org/2000/svg">
<rect width="76" height="76" rx="24" fill="#EB5545" fill-opacity="0.1"/>
<mask id="mask0_1_1033" style="mask-type:alpha" maskUnits="userSpaceOnUse" x="0" y="0" width="76" height="76">
<rect width="76" height="76" rx="24" fill="white"/>
</mask>
<g mask="url(#mask0_1_1033)">
<path d="M-10.3085 62.3087H53.4287C55.5344 62.3087 57.2629 60.5801 57.2629 58.4744V42.7915C57.2629 42.5087 57.2315 42.1944 57.1687 41.9115L54.7801 31.6658C53.3344 25.443 47.8344 21.0115 41.4544 20.8858L1.06865 20.163C-5.43706 20.0687 -10.9371 24.9715 -11.5656 31.4458L-14.1113 58.1287C-14.3313 60.3601 -12.5713 62.3087 -10.3085 62.3087Z" fill="#F9D96D"/>
<path d="M44.4947 70.987C49.2862 69.8285 52.2314 65.0051 51.0729 60.2136C49.9145 55.4221 45.0911 52.4769 40.2996 53.6354C35.5081 54.7938 32.5629 59.6172 33.7213 64.4087C34.8798 69.2002 39.7031 72.1454 44.4947 70.987Z" fill="#708DC7"/>
<path d="M46.945 64.1637C47.9634 61.6547 46.755 58.7952 44.246 57.7768C41.737 56.7584 38.8774 57.9668 37.859 60.4758C36.8406 62.9848 38.049 65.8444 40.5581 66.8628C43.0671 67.8812 45.9266 66.6728 46.945 64.1637Z" fill="#4155A4"/>
<path d="M5.23599 69.2096C9.05243 66.0897 9.61709 60.4667 6.49719 56.6502C3.37729 52.8338 -2.24574 52.2691 -6.06218 55.389C-9.87863 58.5089 -10.4433 64.1319 -7.32339 67.9484C-4.20348 71.7648 1.41954 72.3295 5.23599 69.2096Z" fill="#708DC7"/>
<path d="M4.12513 64.1445C5.14352 61.6354 3.93513 58.7759 1.42611 57.7575C-1.08291 56.7391 -3.94245 57.9475 -4.96085 60.4565C-5.97924 62.9655 -4.77084 65.8251 -2.26182 66.8435C0.247202 67.8619 3.10674 66.6535 4.12513 64.1445Z" fill="#4155A4"/>
<path d="M32.5601 39.8687L52.4544 41.6916L49.9087 30.4402C49.2172 27.423 46.5458 25.2859 43.4658 25.2859H31.0515L32.5601 39.8687Z" fill="white"/>
<path d="M13.0743 39.8686H28.3486L27.6572 25.3171H13.0743V39.8686Z" fill="white"/>
<path d="M-8.42279 39.8686H9.96292V25.3171H-1.5085C-4.49422 25.3171 -7.0085 27.5486 -7.35422 30.5343L-8.42279 39.8686Z" fill="white"/>
<path d="M52.4521 56.0479L55.7836 56.0479L55.7836 50.0136L52.4521 50.0136L52.4521 56.0479Z" fill="white"/>
</g>
<rect x="0.5" y="0.5" width="75" height="75" rx="23.5" stroke="#EB5545" stroke-opacity="0.1"/>
</svg>
