<svg width="172" height="76" viewBox="0 0 172 76" fill="none" xmlns="http://www.w3.org/2000/svg">
<rect width="172" height="76" rx="24" fill="#CDE5FF"/>
<mask id="mask0_1_1052" style="mask-type:alpha" maskUnits="userSpaceOnUse" x="0" y="0" width="172" height="76">
<rect width="172" height="76" rx="24" fill="#CDE5FF"/>
</mask>
<g mask="url(#mask0_1_1052)">
<path d="M138.816 47.0277C143.25 47.0277 146.845 43.3871 146.845 38.8962C146.845 34.4053 143.25 30.7646 138.816 30.7646C134.382 30.7646 130.788 34.4053 130.788 38.8962C130.788 43.3871 134.382 47.0277 138.816 47.0277Z" fill="#F1A8CA"/>
<path d="M139.727 0.692383H139.718C134.975 0.692383 131.13 4.58682 131.13 9.39084V9.39931C131.13 14.2033 134.975 18.0978 139.718 18.0978H139.727C144.47 18.0978 148.315 14.2033 148.315 9.39931V9.39084C148.315 4.58682 144.47 0.692383 139.727 0.692383Z" fill="#FFD401"/>
<path d="M91.7268 14.6924H91.7185C86.9753 14.6924 83.1301 18.5868 83.1301 23.3908V23.3993C83.1301 28.2033 86.9753 32.0978 91.7185 32.0978H91.7268C96.4701 32.0978 100.315 28.2033 100.315 23.3993V23.3908C100.315 18.5868 96.4701 14.6924 91.7268 14.6924Z" fill="#FFD401"/>
<path d="M167.246 24.9261C167.246 19.309 162.75 14.7554 157.204 14.7554C151.658 14.7554 147.162 19.309 147.162 24.9261C147.162 30.5433 151.658 35.0969 157.204 35.0969C162.75 35.0969 167.246 30.5433 167.246 24.9261Z" fill="#DADAB7"/>
<path d="M37.2463 2.92614C37.2463 -2.69102 32.7504 -7.24463 27.2043 -7.24463C21.6583 -7.24463 17.1623 -2.69102 17.1623 2.92614C17.1623 8.5433 21.6583 13.0969 27.2043 13.0969C32.7504 13.0969 37.2463 8.5433 37.2463 2.92614Z" fill="#DADAB7"/>
<path d="M172 44.6989L129.526 44.375C129.292 44.4517 128.14 44.8353 128.006 48.6367C127.984 49.1366 128.021 49.6373 128.115 50.1283C128.209 50.7831 128.478 51.3988 128.891 51.9084C129.305 52.4179 129.848 52.8017 130.461 53.0178C130.632 53.041 130.793 53.1118 130.928 53.2224C131.013 53.3296 131.072 53.4549 131.103 53.5889C133.316 61.1492 135.277 68.7777 135.72 76.6875H172V44.6989Z" fill="#718EC8"/>
<path d="M141.508 58.7449C141.404 57.882 140.629 57.2679 139.777 57.373C138.925 57.4782 138.319 58.2629 138.423 59.1258L140.117 73.2031C140.221 74.0659 140.996 74.6801 141.847 74.5749C142.699 74.4698 143.306 73.685 143.202 72.8222L141.508 58.7449Z" fill="#F5F9EC"/>
<path d="M149.909 58.7471C149.805 57.8842 149.03 57.2701 148.178 57.3752C147.326 57.4804 146.72 58.2651 146.824 59.1279L148.518 73.2053C148.622 74.0681 149.397 74.6823 150.249 74.5771C151.101 74.472 151.707 73.6872 151.603 72.8244L149.909 58.7471Z" fill="#F5F9EC"/>
<path d="M158.318 58.7483C158.215 57.8855 157.44 57.2713 156.588 57.3765C155.736 57.4816 155.13 58.2663 155.233 59.1292L156.928 73.2065C157.032 74.0693 157.806 74.6835 158.658 74.5783C159.51 74.4732 160.117 73.6885 160.013 72.8256L158.318 58.7483Z" fill="#F5F9EC"/>
<path d="M166.417 58.4353C166.313 57.5725 165.539 56.9583 164.687 57.0635C163.835 57.1686 163.228 57.9534 163.332 58.8162L165.027 72.8935C165.13 73.7564 165.905 74.3705 166.757 74.2654C167.609 74.1602 168.215 73.3755 168.112 72.5126L166.417 58.4353Z" fill="#F5F9EC"/>
</g>
<rect x="0.5" y="0.5" width="171" height="75" rx="23.5" stroke="#333C47" stroke-opacity="0.05"/>
</svg>
