<svg width="172" height="164" viewBox="0 0 172 164" fill="none" xmlns="http://www.w3.org/2000/svg">
<rect width="172" height="164" rx="24" fill="#EB5545" fill-opacity="0.1"/>
<mask id="mask0_1_974" style="mask-type:alpha" maskUnits="userSpaceOnUse" x="0" y="0" width="172" height="164">
<rect width="172" height="164" rx="24" fill="white"/>
</mask>
<g mask="url(#mask0_1_974)">
<path d="M132.527 115.21C131.928 111.613 130.196 108.083 127.731 105.751C121.802 100.289 119.537 93.4274 118.005 86.0998C115.607 74.3756 117.606 60.9194 112.21 49.7281C107.813 40.6685 96.955 33.8738 85.2308 33.8738C74.8388 33.8738 66.0457 39.203 60.9829 46.6638C51.9233 59.9868 57.6522 75.9077 52.7227 90.0967C50.258 97.0912 46.1945 104.086 39.5996 109.348C37.8676 110.747 27.3425 124.67 43.9296 129.399C52.2564 131.798 70.5089 132.064 86.8295 131.598C94.5568 131.398 101.884 130.998 107.48 130.598C112.876 130.199 118.472 130.199 123.734 129.133C131.262 127.667 133.526 121.272 132.527 115.21Z" fill="#ECBAD3"/>
<path d="M107.547 130.665C112.942 130.265 118.538 130.265 123.801 129.2C131.328 127.667 133.593 121.272 132.594 115.21C131.994 111.613 130.262 108.083 127.798 105.751C121.869 100.289 119.604 93.4274 118.072 86.0998C115.674 74.3755 117.672 60.9194 112.276 49.7281C110.744 46.5306 108.346 43.5995 105.415 41.1348C105.615 41.6011 115.008 65.7156 109.145 76.8403C109.145 76.8403 97.288 82.6358 94.0905 87.8317C90.893 93.0277 85.2307 101.554 89.161 117.609C89.161 117.609 70.9085 122.338 75.838 131.797C79.5019 131.797 83.2323 131.731 86.8295 131.598C94.69 131.464 101.951 131.065 107.547 130.665Z" fill="#E7A4C3"/>
<path d="M66.7119 40.3353C63.6476 45.3981 73.0403 47.7962 77.8365 47.3299C80.3679 47.0634 82.8327 46.5971 85.2308 45.931C88.2285 45.1316 94.1572 42.2006 87.962 40.0023C84.498 38.8032 85.0976 35.0062 88.828 34.6065C89.7606 34.4732 90.7598 34.4066 91.6924 34.4066C89.5607 33.9403 87.4291 33.7405 85.2308 33.7405C78.103 33.8071 71.6414 36.3385 66.7119 40.3353Z" fill="#F0CCDF"/>
<path d="M87.0959 108.882C92.2252 107.683 92.0254 103.819 87.4956 101.954C87.0293 101.754 86.6962 101.488 86.3631 101.221C83.3654 100.821 80.6342 101.088 77.4367 102.287C74.8388 103.286 71.7745 100.222 72.7737 97.6239C77.0371 86.4992 67.7776 73.6426 56.5863 70.4451C56.3198 71.6441 55.9868 72.8432 55.6537 74.0423C52.7893 83.768 48.0596 93.3606 40.2657 100.688C38.2006 102.62 25.9435 121.872 45.3284 128.467C50.4578 130.199 58.9178 131.131 68.5104 131.531C71.7745 129.333 74.5057 126.135 74.9054 122.338C75.1718 119.807 74.4391 117.475 75.5049 115.01C76.5708 112.612 78.8357 110.814 81.2338 109.881C83.2322 109.215 85.1641 109.348 87.0959 108.882Z" fill="#E7A4C3"/>
<path d="M78.268 56.0287C78.4039 54.6372 77.8907 53.4483 77.1218 53.3732C76.3528 53.2981 75.6192 54.3652 75.4833 55.7566C75.3474 57.1481 75.8606 58.337 76.6295 58.4121C77.3985 58.4873 78.1321 57.4201 78.268 56.0287Z" fill="#221F20"/>
<path d="M94.2461 57.6139C94.382 56.2224 93.8688 55.0335 93.0999 54.9584C92.3309 54.8833 91.5973 55.9504 91.4614 57.3419C91.3255 58.7333 91.8387 59.9222 92.6076 59.9973C93.3766 60.0725 94.1102 59.0053 94.2461 57.6139Z" fill="#221F20"/>
<path d="M92.2919 64.2501C90.5599 67.1812 87.2958 69.0464 83.632 68.7133C79.9682 68.3802 77.1037 65.9155 76.0379 62.6514" stroke="#221F20" stroke-width="2" stroke-miterlimit="10" stroke-linecap="round" stroke-linejoin="round"/>
<path d="M53.0558 66.9813C49.3254 67.0479 45.1286 69.0463 42.131 71.178C32.2054 78.3058 31.5392 92.8278 32.0721 103.952C32.6717 115.543 34.4036 129.533 48.4594 131.464C59.3176 132.997 73.9062 130.798 71.175 116.076C70.9086 114.611 70.4422 113.145 70.309 111.68C69.7761 104.552 79.7017 104.219 84.6312 104.752C84.6312 104.752 91.8922 105.152 89.9604 97.4908C88.0285 89.8301 72.7738 90.2298 70.5089 92.1617C68.3106 94.0935 72.5073 66.6482 53.0558 66.9813Z" fill="#F5CC1F"/>
<path d="M30.9397 102.753C29.0745 103.087 27.2092 103.952 25.5439 105.618C21.8135 109.148 21.0141 114.544 23.2124 119.074C27.076 127.134 37.5345 124.87 44.1294 122.072C45.062 121.672 45.928 121.272 46.6608 120.606C51.3238 116.276 48.6592 109.015 43.9296 106.351C39.7994 104.019 35.2696 102.021 30.9397 102.753Z" fill="#ECBAD3"/>
<path d="M43.8629 106.351C43.7297 106.284 43.6631 106.217 43.5298 106.151C44.5291 110.947 44.196 116.143 42.5972 120.406C42.1975 121.339 41.7978 122.272 41.3315 123.138C42.3308 122.805 43.1968 122.472 44.0627 122.072C44.9954 121.672 45.8613 121.272 46.5941 120.606C51.3238 116.343 48.6592 109.015 43.8629 106.351Z" fill="#E7A4C3"/>
<path d="M90.2268 97.5573C89.4941 94.6929 86.8961 92.9609 83.8318 92.0283C84.2981 93.3606 84.4313 94.8261 83.8984 96.1584C83.1657 98.0236 81.2338 98.9563 79.5018 99.6224C75.1719 101.288 69.5762 101.954 66.9782 106.351C65.8458 108.282 65.7126 110.547 65.5794 112.679C65.4461 115.01 65.2463 117.409 64.4469 119.673C62.3152 125.269 56.5197 129.399 50.8575 130.998C49.9249 131.264 48.9256 131.398 47.993 131.464C48.1929 131.531 48.3927 131.531 48.6592 131.597C59.5174 133.13 74.106 130.931 71.3748 116.209C71.1084 114.744 70.6421 113.278 70.5088 111.813C69.9759 104.685 79.9015 104.352 84.831 104.885C84.8976 104.818 92.1587 105.151 90.2268 97.5573Z" fill="#EAA338"/>
<path d="M34.1372 90.4297C35.4695 90.7628 36.6685 91.3623 38.0008 91.6287C39.0667 91.8286 40.1325 91.762 41.1317 91.4289C42.8637 90.8294 44.3959 89.8967 45.8614 88.8309C50.6577 85.3669 60.0503 75.0416 51.457 70.5118C51.124 70.3786 51.0573 69.9789 51.2572 69.6459C51.7901 68.58 52.5895 67.7806 53.4555 67.1145C53.3889 67.1145 53.3222 67.1145 53.2556 67.1145C49.5252 67.1811 45.3285 69.1796 42.3308 71.3112C36.2689 75.7078 33.6709 82.8356 32.6717 90.2298C33.138 90.1632 33.6709 90.2964 34.1372 90.4297Z" fill="#F0D36F"/>
<path d="M112.609 67.8471C112.609 67.8471 92.2919 66.9811 92.4918 96.2916C92.5584 102.287 92.3585 108.282 92.4252 114.278C92.4252 118.674 91.759 124.137 94.6901 127.8C96.6219 130.199 99.7528 131.198 102.817 131.464C106.481 131.797 110.211 131.264 113.942 131.398C118.538 131.531 123.135 131.797 127.731 131.731C133.726 131.664 142.386 131.664 146.383 126.268C149.98 121.405 151.979 114.544 150.38 108.615C149.581 105.618 147.715 102.753 145.117 100.955C141.853 98.6897 138.856 99.4891 135.125 98.9562C127.664 97.8904 128.197 84.4342 126.665 79.105C124.733 72.9098 119.804 66.5814 112.609 67.8471Z" fill="#F2F6E9"/>
<path d="M94.6234 90.4294C95.3562 88.431 96.0889 86.2327 97.4878 84.7006C98.6869 83.4349 100.286 82.7021 101.818 81.8361C103.683 80.8369 105.282 79.5046 106.148 77.5728C107.014 75.7076 107.08 73.5759 107.813 71.6441C108.413 70.1119 109.479 68.9129 110.877 68.0469C105.881 68.6464 92.4251 72.5101 92.6249 96.3582C92.6249 96.558 92.6249 96.7578 92.6249 96.9577C93.2245 94.6928 93.8906 92.5611 94.6234 90.4294Z" fill="#F3F9FD"/>
<path d="M150.447 108.615C149.647 105.618 147.782 102.753 145.184 100.955C143.852 100.022 142.586 99.6225 141.254 99.4226C142.786 102.087 143.652 105.085 143.519 108.216C143.119 116.676 136.324 123.604 128.997 127.068C124.467 129.199 119.604 130.332 114.675 131.264C114.475 131.331 114.341 131.331 114.142 131.331C118.671 131.464 123.268 131.731 127.798 131.598C133.793 131.531 142.453 131.531 146.45 126.135C150.047 121.405 152.045 114.544 150.447 108.615Z" fill="#D5D7B4"/>
<path d="M130.196 101.288C136.457 100.488 141.92 96.8246 141.32 90.4962C140.321 80.5706 125.999 82.7689 125.999 82.7689C125.999 82.7689 113.076 83.3685 114.208 92.4281C115.074 99.356 123.068 102.22 130.196 101.288Z" fill="#ECBAD3"/>
<path d="M141.32 90.4964C140.987 87.2322 139.255 85.3004 137.057 84.168C138.656 90.8961 136.391 96.4917 132.194 100.888C137.523 99.6226 141.92 96.1586 141.32 90.4964Z" fill="#E7A4C3"/>
</g>
<rect x="0.5" y="0.5" width="171" height="163" rx="23.5" stroke="#EB5545" stroke-opacity="0.1"/>
</svg>
