<svg width="120" height="120" viewBox="0 0 120 120" fill="none" xmlns="http://www.w3.org/2000/svg">
<g clip-path="url(#clip0_34_3062)">
<path d="M120 0H0V120H120V0Z" fill="#F4F8EB"/>
<path d="M36.2857 72.6857L20 100.857C18 104.286 20.5143 108.571 24.4571 108.571H95.5428C99.4857 108.571 101.943 104.286 100 100.857L83.7143 72.6286C82.8 71.0286 81.0857 70.0571 79.2571 70.0571H40.7428C38.9143 70.1143 37.2571 71.0857 36.2857 72.6857Z" fill="#F3BDD7"/>
<path d="M86.0571 87.7714C86.1142 87.0857 86.0571 86.4 85.8285 85.6571L65.2571 22.0572C63.5999 16.9143 56.3428 16.9143 54.6856 22.0572L34.1714 85.6571C33.7142 87.1429 33.8856 88.6286 34.5142 89.8857C36.5142 95.1429 47.1999 99.1429 60.1142 99.1429C74.4571 99.1429 86.0571 94.1714 86.0571 88.0572C86.0571 88 86.0571 87.8857 86.0571 87.7714Z" fill="#F4CFE2"/>
<path d="M36.2857 72.6857L20 100.857C18 104.286 20.5143 108.571 24.4571 108.571H95.5428C99.4857 108.571 101.943 104.286 100 100.857L83.7143 72.6286C82.8 71.0286 81.0857 70.0571 79.2571 70.0571H40.7428C38.9143 70.1143 37.2571 71.0857 36.2857 72.6857Z" fill="#F3BDD7"/>
<path d="M86.0571 87.7714C86.1142 87.0857 86.0571 86.4 85.8285 85.6571L65.2571 22.0572C63.5999 16.9143 56.3428 16.9143 54.6856 22.0572L34.1714 85.6571C33.7142 87.1429 33.8856 88.6286 34.5142 89.8857C36.5142 95.1429 47.1999 99.1429 60.1142 99.1429C74.4571 99.1429 86.0571 94.1714 86.0571 88.0572C86.0571 88 86.0571 87.8857 86.0571 87.7714Z" fill="#F4CFE2"/>
<path fill-rule="evenodd" clip-rule="evenodd" d="M40.1286 44.3568C35.052 47.0063 32.9 50.1586 32.9 52.8572C32.9 55.5557 35.052 58.708 40.1286 61.3575C45.0652 63.934 52.0861 65.6143 60.0001 65.6143C67.914 65.6143 74.9349 63.934 79.8715 61.3575C84.9481 58.708 87.1001 55.5557 87.1001 52.8572C87.1001 50.1586 84.9481 47.0063 79.8715 44.3568C74.9349 41.7804 67.914 40.1 60.0001 40.1C52.0861 40.1 45.0652 41.7804 40.1286 44.3568ZM37.4451 39.215C43.3664 36.1246 51.3455 34.3 60.0001 34.3C68.6546 34.3 76.6337 36.1246 82.555 39.215C88.3363 42.2323 92.9 46.9085 92.9 52.8572C92.9 58.8058 88.3363 63.4821 82.555 66.4993C76.6337 69.5897 68.6546 71.4143 60.0001 71.4143C51.3455 71.4143 43.3664 69.5897 37.4451 66.4993C31.6638 63.4821 27.1001 58.8058 27.1001 52.8572C27.1001 46.9085 31.6638 42.2323 37.4451 39.215Z" fill="#708DC7"/>
<path d="M65.2569 22.0572C63.5998 16.9143 56.3427 16.9143 54.6855 22.0572L44.7998 52.8572H75.2569L65.2569 22.0572Z" fill="#F4CFE2"/>
<path fill-rule="evenodd" clip-rule="evenodd" d="M39.8424 31.21C43.8518 35.0744 50.1136 38.6671 57.7063 40.8997C65.2989 43.1322 72.5088 43.5006 77.9718 42.4214C83.5897 41.3116 86.5436 38.8943 87.3048 36.3053C88.0661 33.7164 86.8907 30.0849 82.7677 26.1109C78.7583 22.2465 72.4965 18.6537 64.9039 16.4212C57.3112 14.1887 50.1013 13.8202 44.6383 14.8994C39.0204 16.0093 36.0665 18.4265 35.3053 21.0155C34.544 23.6045 35.7194 27.2359 39.8424 31.21ZM35.8174 35.386C31.122 30.8603 28.0627 25.0865 29.7408 19.3793C31.4189 13.6722 37.1165 10.4733 43.5143 9.20938C50.067 7.91489 58.2368 8.41528 66.54 10.8567C74.8432 13.2982 81.9836 17.2996 86.7927 21.9349C91.4881 26.4606 94.5474 32.2344 92.8693 37.9415C91.1912 43.6486 85.4936 46.8476 79.0958 48.1115C72.5432 49.406 64.3733 48.9056 56.0701 46.4641C47.7669 44.0227 40.6265 40.0213 35.8174 35.386Z" fill="#F9D96D"/>
</g>
<defs>
<clipPath id="clip0_34_3062">
<rect width="120" height="120" rx="16" fill="white"/>
</clipPath>
</defs>
</svg>
