<svg width="120" height="120" viewBox="0 0 120 120" fill="none" xmlns="http://www.w3.org/2000/svg">
<g clip-path="url(#clip0_34_3134)">
<path d="M120 0H0V120H120V0Z" fill="#F4F8EB"/>
<path d="M14.9712 42.5714C16.0569 42.2857 17.1998 42 18.2855 41.7143C18.514 41.6571 18.9712 41.5429 19.0283 41.4286C19.5426 39.4286 20.914 40.5714 21.8855 40.6286C23.5998 38.4 25.5426 40.4571 27.1426 40.2857C25.6569 38.3429 23.8855 36.5714 22.6855 34.4C21.714 32.6286 21.3712 30.4571 20.8569 28.4C20.5712 27.3714 20.514 26.3429 20.3426 25.3143C21.2569 25.5429 22.1712 26 23.0855 25.9429C24.114 25.8857 25.0283 27.2 26.0569 26.0571C26.114 26 26.3426 26 26.3998 26.0571C27.8283 27.7143 30.3998 27.0286 31.8855 28.7429C33.1426 30.1714 34.6855 31.3143 36.3426 32.8571C35.8283 30 35.3712 27.5429 34.914 25.1429C34.6283 23.7714 34.8569 23.2571 36.1712 22.6857C36.114 21.7714 35.9426 20.8571 35.9426 19.9429C35.9426 19.6571 36.0569 19.0857 36.2283 19.0286C37.8855 18.2857 37.4283 16.5714 37.9998 15.3143C38.2855 14.6857 38.5712 14.1143 38.914 13.4857C39.4283 13.8286 40.0569 14.1143 40.4569 14.5714C42.1141 16.3429 43.7712 18.1714 45.3712 20C45.5426 20.2286 45.714 20.4571 45.7712 20.7429C46.6283 23.7143 47.4283 26.6857 48.2283 29.5429C48.7998 28.2857 49.4283 26.6286 50.2283 25.0286C50.6283 24.2857 51.4283 23.8286 52.0569 23.2571C52.3426 22.9714 52.7426 22.7429 53.0283 22.4571C53.7141 21.7143 53.7712 20.4 55.4855 20.6286C56.1712 20.7429 57.0855 19.3143 57.9426 18.6286C58.4569 18.2286 59.0283 17.8286 59.9998 17.1429C60.1141 20.1143 59.714 22.7429 60.514 24.9143C61.5426 27.7143 59.1426 29.6 59.5998 32.1143C59.7141 32.7429 59.0283 33.4857 58.5712 34.5143C59.5426 33.7714 60.2855 33.1429 61.0283 32.6286C61.4283 32.3429 62.0569 31.9429 62.3998 32.0571C63.6569 32.5714 64.6283 31.9429 65.6569 31.5429C66.0569 31.3714 66.7426 32 67.2569 32C68.2283 32 69.1998 31.7143 70.1712 31.7143C70.5712 31.7143 71.0855 31.8286 71.3712 32.1143C71.5426 32.2857 71.4283 32.8571 71.2569 33.2C70.1141 35.4857 69.2569 38 67.7141 40.0571C66.3426 41.9429 64.2283 43.3143 62.6855 44.6857C64.7998 45.8286 67.1426 47.0857 69.7141 48.5143C70.1712 49.9429 68.3426 49.8286 67.6569 50.4572C66.914 51.1429 65.9426 51.5429 64.9712 51.9429C63.9426 52.3429 62.9141 52.7429 61.8283 52.9714C60.7998 53.2 59.714 53.3143 58.514 53.5429C59.0283 54.8 59.5426 56.0571 60.1141 57.2571C60.6855 58.3429 60.6855 58.9714 59.1998 58.9714C56.8569 58.9143 54.3426 59.5429 52.2855 58.1714C50.7426 57.1429 49.6569 55.4857 48.3998 54.1143C48.2283 53.9429 48.1712 53.7714 47.6569 53.6C47.8283 54.8572 47.9426 56.1714 48.1712 57.4286C49.0283 62.6857 49.9426 68 50.8569 73.2571C51.0283 74.2286 50.9712 75.2571 51.3141 76.1143C51.8855 77.4857 51.1998 78.1143 50.114 78.4C48.8569 78.7429 48.8569 77.7143 48.7426 76.8C47.4855 69.5429 46.2283 62.2857 44.9712 55.0286C44.914 54.6857 44.9712 54.3429 44.6283 53.8857C44.2855 55.0286 44.0569 56.2857 43.5426 57.3714C43.0283 58.5143 42.3426 59.7143 41.4855 60.5714C40.6283 61.4286 39.4855 62.1714 38.3426 62.6286C37.1998 63.0857 35.8855 63.2 34.6855 63.4857C34.6855 61.6 34.6855 60 34.6855 58.4C32.7426 58.7429 30.6855 59.3714 28.6855 59.3714C26.7426 59.3714 24.7426 58.6857 22.3426 58.2286C24.2283 55.6571 25.5426 52.8 28.4569 51.3143C22.3998 51.0857 15.314 44.8 14.9712 42.5714Z" fill="#F9D96D"/>
<path d="M103.828 47.3714C104.114 48.6286 104.571 50.1143 104.686 51.6C105.143 56.2857 105.2 60.9714 104.514 65.7143C103.657 71.6 101.714 77.0857 99.3713 82.4571C96.7998 88.2857 92.6856 92.5714 87.1999 95.8286C83.4284 98.0571 79.5427 99.8857 75.1999 100.571C71.8284 101.086 68.5713 100.457 65.4284 98.8571C63.0856 101.143 60.6856 103.314 58.3998 105.6C57.1427 106.914 56.057 106.857 54.6284 105.6C54.9713 105.086 55.3141 104.457 55.7713 104C57.9998 101.829 60.3427 99.7143 62.5141 97.4857C62.9141 97.0857 63.1998 96.2286 63.0856 95.6571C60.857 87.3714 63.7141 80.6286 69.3141 74.6286C73.657 70 78.857 66.6286 84.3998 63.6C90.057 60.4571 95.657 57.0857 100.114 52.2857C101.486 50.8571 102.571 49.0857 103.828 47.3714Z" fill="#F3A734"/>
</g>
<defs>
<clipPath id="clip0_34_3134">
<rect width="120" height="120" rx="16" fill="white"/>
</clipPath>
</defs>
</svg>
