<svg width="120" height="120" viewBox="0 0 120 120" fill="none" xmlns="http://www.w3.org/2000/svg">
<g clip-path="url(#clip0_34_3025)">
<path d="M120 0H0V120H120V0Z" fill="#F4F8EB"/>
<path d="M75.6571 31.4286H44.2856V88.6857H75.6571V31.4286Z" fill="white"/>
<path d="M75.4286 31.7143V88.4H44.5714V31.7143H75.4286ZM76 31.1429H44V88.9714H76V31.1429Z" fill="#F4F8EB"/>
<path d="M107.657 31.4286H76.2856V88.6857H107.657V31.4286Z" fill="white"/>
<path d="M107.371 31.7143V88.4H76.5714V31.7143H107.371ZM107.943 31.1429H76V88.9714H107.943V31.1429Z" fill="#F4F8EB"/>
<path d="M43.7142 31.4286H12.3428V88.6857H43.7142V31.4286Z" fill="white"/>
<path d="M43.4286 31.7143V88.4H12.6286V31.7143H43.4286ZM44 31.1429H12.0571V88.9714H44V31.1429Z" fill="#F4F8EB"/>
<path d="M75.9429 12.0571H44V35.4286H75.9429V12.0571Z" fill="#F3A734"/>
<path d="M95.3714 12.0571H76V35.4286H107.943V24.6286C107.943 17.6571 102.343 12.0571 95.3714 12.0571Z" fill="#708DC7"/>
<path d="M44 12.0571H24.6286C17.6571 12.0571 12.0571 17.7143 12.0571 24.6286V35.3714H44V12.0571Z" fill="#F9D96D"/>
<path d="M75.6571 89.2571H44.2856V107.657H75.6571V89.2571Z" fill="white"/>
<path d="M75.4286 89.5428V107.371H44.5714V89.5428H75.4286ZM76 88.9714H44V107.943H76V88.9714Z" fill="#F4F8EB"/>
<path d="M76.2856 107.657V89.2571H107.657V95.3714C107.657 102.171 102.171 107.657 95.3714 107.657H76.2856Z" fill="white"/>
<path d="M107.371 89.5428V95.3714C107.371 102 102 107.371 95.3714 107.371H76.5714V89.5428H107.371ZM107.943 88.9714H76V107.943H95.3714C102.343 107.943 107.943 102.286 107.943 95.3714V88.9714Z" fill="#F4F8EB"/>
<path d="M24.6285 107.657C17.8285 107.657 12.3428 102.171 12.3428 95.3714V89.2571H43.7142V107.657H24.6285Z" fill="white"/>
<path d="M43.4286 89.5428V107.371H24.6286C18 107.371 12.6286 102 12.6286 95.3714V89.5428H43.4286ZM44 88.9714H12.0571V95.3714C12.0571 102.343 17.7143 107.943 24.6286 107.943H44V88.9714Z" fill="#F4F8EB"/>
</g>
<defs>
<clipPath id="clip0_34_3025">
<rect width="120" height="120" rx="16" fill="white"/>
</clipPath>
</defs>
</svg>
