<svg width="120" height="120" viewBox="0 0 120 120" fill="none" xmlns="http://www.w3.org/2000/svg">
<g clip-path="url(#clip0_34_3058)">
<path d="M120 0H0V120H120V0Z" fill="#F3A835"/>
<path d="M114.6 25.5803C114.6 25.382 114.6 25.1989 114.493 25.0006C113.854 21.7352 112.095 18.7952 109.521 16.6874C105.417 13.5452 99.8956 13.5147 94.9687 13.3927C89.096 13.2249 83.2234 13.5299 77.3508 13.5299C63.653 13.5299 49.9553 13.5299 36.2576 13.5299H27.3495C20.5159 13.5299 14.1246 14.2011 9.74685 20.1348C6.5741 24.4363 6.23852 29.6988 6.89443 34.8392C7.05875 37.871 7.99322 40.8109 9.60957 43.3812C12.2942 47.0116 17.0533 48.2776 21.3396 48.5522C34.1221 49.4064 47.0419 48.9946 59.8244 48.8878C64.9191 48.8878 70.0138 48.7963 75.078 48.72C79.5438 48.5372 83.9606 49.7079 87.7495 52.0787C91.5384 54.4495 94.5226 57.9097 96.311 62.0059C96.6008 62.7075 97.1957 63.5312 97.8363 63.2872C98.0729 63.1597 98.2645 62.9627 98.3855 62.7228C99.2229 61.4166 99.7451 59.9335 99.9108 58.3908C100.124 55.7824 99.743 53.1893 99.8193 50.5809C99.7527 49.9008 99.9312 49.2192 100.323 48.659C100.709 48.2719 101.214 48.025 101.757 47.9573C105.722 47.1641 108.499 46.9353 110.909 43.2439C114.34 38.0397 115.66 31.7234 114.6 25.5803Z" fill="#F9D96D"/>
<path d="M96.4177 75.612V75.0629C95.1974 62.4482 84.703 54.0892 72.5611 53.3875C64.4767 52.8689 56.1788 52.8537 48.1554 52.8994C34.6407 52.8994 18.0448 51.6486 11.1959 66.0785C8.64901 71.9324 7.93635 78.4208 9.15194 84.6879C9.8231 88.7149 11.3027 92.9401 14.689 95.2129C16.5499 96.4637 18.8532 96.9671 20.6989 98.2636C22.7886 99.789 23.5818 102.062 24.9699 104.121C26.5982 106.503 28.7209 108.506 31.1934 109.994C32.3527 110.695 36.9135 112.938 34.6407 109.795C32.8868 107.482 31.8572 104.7 31.6815 101.802C31.6396 101.351 31.6874 100.897 31.8222 100.464C31.9569 100.032 32.176 99.6301 32.4667 99.2826C32.7574 98.9352 33.114 98.6488 33.5159 98.4399C33.9178 98.2309 34.3571 98.1036 34.8085 98.0653H36.7152C50.0773 98.3246 63.6683 99.2246 76.9999 98.4619C85.2979 98.0043 90.9875 94.4807 94.3738 86.9302C95.9626 83.379 96.6641 79.4947 96.4177 75.612Z" fill="#F5F9EC"/>
</g>
<defs>
<clipPath id="clip0_34_3058">
<rect width="120" height="120" rx="16" fill="white"/>
</clipPath>
</defs>
</svg>
