<svg width="120" height="120" viewBox="0 0 120 120" fill="none" xmlns="http://www.w3.org/2000/svg">
<g clip-path="url(#clip0_34_3105)">
<path d="M119.829 0H-0.171387V120H119.829V0Z" fill="#F4F8EB"/>
<path d="M119.829 106.571H-0.171387V120H119.829V106.571Z" fill="#D9DAB6"/>
<path d="M-18.7428 98.7429H97.1429C100.971 98.7429 104.114 95.6 104.114 91.7714V63.2572C104.114 62.7429 104.057 62.1714 103.943 61.6572L99.6 43.0286C96.9715 31.7143 86.9715 23.6572 75.3715 23.4286L1.94289 22.1143C-9.88568 21.9429 -19.8857 30.8572 -21.0285 42.6286L-25.6571 91.1429C-26.0571 95.2 -22.8571 98.7429 -18.7428 98.7429Z" fill="#F9D96D"/>
<path d="M80.8992 114.521C89.611 112.415 94.9659 103.645 92.8596 94.9336C90.7534 86.2218 81.9836 80.8669 73.2717 82.9732C64.5599 85.0794 59.205 93.8492 61.3113 102.561C63.4175 111.273 72.1873 116.628 80.8992 114.521Z" fill="#708DC7"/>
<path d="M85.3545 102.116C87.2062 97.5539 85.0091 92.3547 80.4472 90.5031C75.8854 88.6515 70.6862 90.8486 68.8346 95.4104C66.983 99.9723 69.1801 105.171 73.7419 107.023C78.3038 108.875 83.5029 106.678 85.3545 102.116Z" fill="#4155A4"/>
<path d="M9.51986 111.29C16.4589 105.617 17.4855 95.3938 11.813 88.4548C6.14041 81.5158 -4.08327 80.4891 -11.0223 86.1617C-17.9613 91.8342 -18.9879 102.058 -13.3154 108.997C-7.64281 115.936 2.58087 116.963 9.51986 111.29Z" fill="#708DC7"/>
<path d="M7.50006 102.081C9.35168 97.5189 7.15461 92.3197 2.59275 90.4681C-1.96911 88.6165 -7.16827 90.8135 -9.0199 95.3754C-10.8715 99.9373 -8.67444 105.136 -4.11258 106.988C0.449281 108.84 5.64843 106.643 7.50006 102.081Z" fill="#4155A4"/>
<path d="M59.1999 57.9429L95.3713 61.2572L90.7427 40.8C89.4856 35.3143 84.6285 31.4286 79.0285 31.4286H56.457L59.1999 57.9429Z" fill="white"/>
<path d="M23.7715 57.9429H51.5429L50.2858 31.4857H23.7715V57.9429Z" fill="white"/>
<path d="M-15.3145 57.9429H18.1141V31.4857H-2.74302C-8.1716 31.4857 -12.743 35.5429 -13.3716 40.9714L-15.3145 57.9429Z" fill="white"/>
<path d="M95.3677 87.3597L101.425 87.3597L101.425 76.3883L95.3677 76.3883L95.3677 87.3597Z" fill="white"/>
</g>
<defs>
<clipPath id="clip0_34_3105">
<rect width="120" height="120" rx="16" fill="white"/>
</clipPath>
</defs>
</svg>
