<svg width="120" height="120" viewBox="0 0 120 120" fill="none" xmlns="http://www.w3.org/2000/svg">
<g clip-path="url(#clip0_34_2981)">
<path d="M120 0H0V120H120V0Z" fill="white"/>
<mask id="mask0_34_2981" style="mask-type:luminance" maskUnits="userSpaceOnUse" x="0" y="0" width="120" height="120">
<path d="M120 0H0V120H120V0Z" fill="white"/>
</mask>
<g mask="url(#mask0_34_2981)">
<path d="M35.8859 54L34.3431 50H21.3716L19.8288 54.1143C19.2574 55.7143 18.7431 56.8 18.2859 57.3714C17.8288 57.9429 17.2002 58.2286 16.2288 58.2286C15.4288 58.2286 14.6859 57.9429 14.0574 57.3143C13.4288 56.7429 13.1431 56.0572 13.1431 55.3143C13.1431 54.8572 13.2002 54.4572 13.3716 53.9429C13.5431 53.4286 13.7716 52.8572 14.1145 52L22.2859 31.2572C22.5145 30.6857 22.8002 29.9429 23.1431 29.0857C23.4859 28.2286 23.8288 27.5429 24.1716 27.0286C24.5145 26.4572 25.0288 26.0572 25.6574 25.7143C26.2859 25.3714 27.0288 25.2 27.8859 25.2C28.8002 25.2 29.5431 25.3714 30.1145 25.7143C30.6859 26.0572 31.2002 26.5143 31.6002 27.0286C31.9431 27.5429 32.2859 28.1714 32.5145 28.7429C32.7431 29.3714 33.0859 30.1714 33.4859 31.2L41.8288 51.8286C42.4574 53.3714 42.8002 54.5143 42.8002 55.2572C42.8002 56 42.5145 56.6857 41.8859 57.3143C41.2574 57.9429 40.5145 58.2286 39.6574 58.2286C39.1431 58.2286 38.6859 58.1143 38.3431 57.9429C38.0002 57.7714 37.6574 57.5429 37.4288 57.2C37.2002 56.9143 36.9145 56.4 36.6288 55.7714C36.3431 55.0857 36.0574 54.5143 35.8859 54ZM23.0859 45.1429H32.6288L27.8288 31.9429L23.0859 45.1429Z" fill="#4B6FB5"/>
</g>
<mask id="mask1_34_2981" style="mask-type:luminance" maskUnits="userSpaceOnUse" x="0" y="0" width="120" height="120">
<path d="M120 0H0V120H120V0Z" fill="white"/>
</mask>
<g mask="url(#mask1_34_2981)">
<path d="M45.3145 54.5715V28.7429C45.3145 27.5429 45.6002 26.6286 46.1144 26.0572C46.6287 25.4286 47.3716 25.1429 48.2859 25.1429C49.2002 25.1429 49.8859 25.4286 50.4573 26.0572C51.0287 26.6857 51.2573 27.5429 51.2573 28.7429V54.5143C51.2573 55.7143 50.9716 56.6286 50.4002 57.2C49.8287 57.8286 49.143 58.1143 48.2287 58.1143C47.3716 58.1143 46.6287 57.8286 46.1144 57.2C45.6002 56.6286 45.3145 55.7143 45.3145 54.5715Z" fill="#4B6FB5"/>
</g>
<mask id="mask2_34_2981" style="mask-type:luminance" maskUnits="userSpaceOnUse" x="0" y="0" width="120" height="120">
<path d="M120 0H0V120H120V0Z" fill="white"/>
</mask>
<g mask="url(#mask2_34_2981)">
<path d="M54.7427 54.5715V28.7429C54.7427 27.5429 55.0284 26.6286 55.5427 26.0572C56.057 25.4286 56.7998 25.1429 57.7141 25.1429C58.6284 25.1429 59.3141 25.4286 59.8855 26.0572C60.457 26.6857 60.6855 27.5429 60.6855 28.7429V54.5143C60.6855 55.7143 60.3998 56.6286 59.8284 57.2C59.257 57.8286 58.5712 58.1143 57.657 58.1143C56.7998 58.1143 56.057 57.8286 55.5427 57.2C55.0284 56.6286 54.7427 55.7143 54.7427 54.5715Z" fill="#4B6FB5"/>
</g>
<mask id="mask3_34_2981" style="mask-type:luminance" maskUnits="userSpaceOnUse" x="0" y="0" width="120" height="120">
<path d="M120 0H0V120H120V0Z" fill="white"/>
</mask>
<g mask="url(#mask3_34_2981)">
<path d="M73.3145 54.2286V29.0857C73.3145 27.7714 73.6002 26.8 74.2287 26.1714C74.8002 25.5429 75.6002 25.2 76.5144 25.2C77.4859 25.2 78.2859 25.5429 78.8573 26.1714C79.4859 26.8 79.7716 27.8286 79.7716 29.1429V54.2857C79.7716 55.6 79.4859 56.5714 78.8573 57.2572C78.2287 57.8857 77.4859 58.2286 76.5144 58.2286C75.6002 58.2286 74.8002 57.8857 74.2287 57.2572C73.6573 56.6286 73.3145 55.5429 73.3145 54.2286Z" fill="#4B6FB5"/>
</g>
<mask id="mask4_34_2981" style="mask-type:luminance" maskUnits="userSpaceOnUse" x="0" y="0" width="120" height="120">
<path d="M120 0H0V120H120V0Z" fill="white"/>
</mask>
<g mask="url(#mask4_34_2981)">
<path d="M88.3998 37.2571V38C89.4284 36.6286 90.5712 35.6 91.8284 34.9714C93.0855 34.3429 94.5141 34 96.1141 34C97.6569 34 99.0855 34.3429 100.343 35.0286C101.6 35.7143 102.514 36.6857 103.086 37.9429C103.486 38.6857 103.714 39.4286 103.828 40.2857C103.943 41.1429 104 42.2286 104 43.4857V54.5714C104 55.7714 103.714 56.6857 103.2 57.2571C102.628 57.8857 101.943 58.1714 101.086 58.1714C100.171 58.1714 99.4855 57.8857 98.9141 57.2571C98.3427 56.6286 98.1141 55.7143 98.1141 54.5714V44.6286C98.1141 42.6857 97.8284 41.1429 97.3141 40.1143C96.7427 39.0857 95.657 38.5714 94.057 38.5714C92.9712 38.5714 92.057 38.9143 91.1427 39.5429C90.2284 40.1714 89.657 41.0286 89.1998 42.1714C88.9141 43.0857 88.7427 44.6857 88.7427 47.1429V54.5714C88.7427 55.7714 88.457 56.6857 87.8855 57.2571C87.3141 57.8857 86.6284 58.1714 85.7141 58.1714C84.857 58.1714 84.1712 57.8857 83.5998 57.2571C83.0284 56.6286 82.7998 55.7143 82.7998 54.5714V37.3714C82.7998 36.2286 83.0284 35.3714 83.5427 34.8571C84.0569 34.3429 84.6855 34 85.5427 34C86.0569 34 86.5141 34.1143 86.9712 34.3429C87.3712 34.5714 87.7141 34.9714 87.9998 35.4286C88.2855 36 88.3998 36.5714 88.3998 37.2571Z" fill="#4B6FB5"/>
</g>
<mask id="mask5_34_2981" style="mask-type:luminance" maskUnits="userSpaceOnUse" x="0" y="0" width="120" height="120">
<path d="M120 0H0V120H120V0Z" fill="white"/>
</mask>
<g mask="url(#mask5_34_2981)">
<path d="M41.0287 62.4572C44.343 62.4572 47.2001 63.1429 49.543 64.4572C51.943 65.8286 53.7144 67.7143 54.9144 70.1714C56.1144 72.6286 56.743 75.5429 56.743 78.9143C56.743 81.3714 56.4001 83.6 55.7144 85.6571C55.0287 87.6571 54.0573 89.4286 52.6859 90.9143C51.3144 92.4 49.7144 93.5429 47.7716 94.2857C45.8287 95.0286 43.6001 95.4857 41.0859 95.4857C38.5716 95.4857 36.343 95.0857 34.4001 94.2857C32.4001 93.4857 30.8001 92.3429 29.4287 90.8571C28.1144 89.3714 27.0859 87.6 26.4573 85.5429C25.8287 83.4857 25.4287 81.2572 25.4287 78.8572C25.4287 76.4 25.7716 74.1714 26.4573 72.1143C27.143 70.0571 28.1716 68.3429 29.543 66.9143C30.9144 65.4857 32.5144 64.4 34.4001 63.6C36.4001 62.8572 38.5716 62.4572 41.0287 62.4572ZM50.1716 78.8572C50.1716 76.5143 49.7716 74.5143 49.0287 72.8C48.2859 71.0857 47.2001 69.7714 45.7716 68.9143C44.343 68.0572 42.743 67.6 40.9716 67.6C39.6573 67.6 38.4573 67.8286 37.3716 68.3429C36.2859 68.8572 35.3144 69.5429 34.5144 70.4572C33.7144 71.3714 33.0859 72.5714 32.6287 74C32.1716 75.4286 31.943 77.0857 31.943 78.8572C31.943 80.6857 32.1716 82.2857 32.6287 83.7714C33.0859 85.2572 33.7144 86.4572 34.5716 87.4286C35.4287 88.4 36.343 89.1429 37.4287 89.6C38.5144 90.0572 39.7144 90.3429 40.9716 90.3429C42.6287 90.3429 44.1716 89.9429 45.543 89.0857C46.9144 88.2857 48.0573 86.9714 48.8573 85.2571C49.7716 83.5429 50.1716 81.4286 50.1716 78.8572Z" fill="#F0A7C9"/>
</g>
<mask id="mask6_34_2981" style="mask-type:luminance" maskUnits="userSpaceOnUse" x="0" y="0" width="120" height="120">
<path d="M120 0H0V120H120V0Z" fill="white"/>
</mask>
<g mask="url(#mask6_34_2981)">
<path d="M64.5712 74.5715V75.3143C65.5998 73.9429 66.7426 72.9143 67.9998 72.2858C69.2569 71.6572 70.6855 71.3143 72.2855 71.3143C73.8283 71.3143 75.2569 71.6572 76.514 72.3429C77.7712 73.0286 78.6855 74 79.2569 75.2572C79.6569 76 79.8855 76.7429 79.9998 77.6C80.1141 78.4572 80.1712 79.5429 80.1712 80.8V91.8858C80.1712 93.0858 79.8855 94 79.3712 94.5715C78.7998 95.2 78.114 95.4858 77.2569 95.4858C76.3998 95.4858 75.6569 95.2 75.0855 94.5715C74.514 93.9429 74.2855 93.0286 74.2855 91.8858V82C74.2855 80.0572 73.9998 78.5143 73.4855 77.4858C72.9141 76.4572 71.8283 75.9429 70.2283 75.9429C69.1426 75.9429 68.2283 76.2858 67.3141 76.9143C66.4569 77.5429 65.8283 78.4 65.3712 79.5429C65.0855 80.4572 64.914 82.0572 64.914 84.5143V91.9429C64.914 93.1429 64.6283 94.0572 64.0569 94.6286C63.4855 95.2 62.7998 95.5429 61.8855 95.5429C61.0283 95.5429 60.3426 95.2572 59.7712 94.6286C59.1998 94 58.9712 93.0858 58.9712 91.9429V74.7429C58.9712 73.6 59.1998 72.7429 59.7141 72.2286C60.2283 71.6572 60.8569 71.3715 61.7141 71.3715C62.2283 71.3715 62.6855 71.4858 63.1426 71.7143C63.5426 71.9429 63.8855 72.3429 64.1712 72.8C64.4569 73.2572 64.5712 73.8858 64.5712 74.5715Z" fill="#F0A7C9"/>
</g>
<mask id="mask7_34_2981" style="mask-type:luminance" maskUnits="userSpaceOnUse" x="0" y="0" width="120" height="120">
<path d="M120 0H0V120H120V0Z" fill="white"/>
</mask>
<g mask="url(#mask7_34_2981)">
<path d="M100.057 84.8572H88.3999C88.3999 86.2286 88.6856 87.3715 89.1999 88.4572C89.7142 89.4858 90.4571 90.2858 91.3142 90.8C92.1713 91.3143 93.1428 91.6 94.2285 91.6C94.9142 91.6 95.5999 91.5429 96.1713 91.3715C96.7428 91.2 97.3142 90.9715 97.8856 90.5715C98.4571 90.2286 98.9713 89.8286 99.4285 89.4286C99.8856 89.0286 100.514 88.4572 101.257 87.7715C101.543 87.4858 102 87.3715 102.571 87.3715C103.2 87.3715 103.657 87.5429 104.057 87.8858C104.457 88.2286 104.628 88.6858 104.628 89.3143C104.628 89.8286 104.4 90.4572 104 91.2C103.6 91.9429 102.971 92.6286 102.114 93.2572C101.257 93.8858 100.171 94.4572 98.9142 94.9143C97.6571 95.3715 96.1713 95.5429 94.4571 95.5429C90.6285 95.5429 87.6571 94.4572 85.5428 92.2858C83.4285 90.1143 82.3428 87.1429 82.3428 83.4286C82.3428 81.6572 82.6285 80.0572 83.1428 78.5143C83.6571 76.9715 84.3999 75.7143 85.4285 74.6286C86.4571 73.5429 87.6571 72.7429 89.1428 72.1715C90.6285 71.6 92.2285 71.3143 93.9999 71.3143C96.3428 71.3143 98.3428 71.8286 99.9999 72.8C101.657 73.7715 102.914 75.0286 103.714 76.6286C104.514 78.1715 104.971 79.7715 104.971 81.3715C104.971 82.8572 104.514 83.8286 103.714 84.2858C102.8 84.6286 101.6 84.8572 100.057 84.8572ZM88.3999 81.4858H99.1999C99.0285 79.4286 98.5142 77.9429 97.5428 76.9143C96.5713 75.8858 95.3142 75.4286 93.7713 75.4286C92.2856 75.4286 91.0856 75.9429 90.1142 76.9715C89.1999 77.9429 88.6285 79.4858 88.3999 81.4858Z" fill="#F0A7C9"/>
</g>
</g>
<defs>
<clipPath id="clip0_34_2981">
<rect width="120" height="120" rx="16" fill="white"/>
</clipPath>
</defs>
</svg>
