<svg width="120" height="120" viewBox="0 0 120 120" fill="none" xmlns="http://www.w3.org/2000/svg">
<g clip-path="url(#clip0_34_3050)">
<path d="M120 0H0V120H120V0Z" fill="#F9D96D"/>
<path d="M100.079 44.6168C98.4093 37.6534 95.2908 31.1201 90.9265 25.443C82.9794 14.7655 70.0291 10.403 57.1703 11.0589C46.0047 11.6233 34.2899 15.6349 27.2885 24.7871C18.9448 35.7392 19.0211 51.2673 17.8466 64.4464C16.8296 76.3442 16.1687 88.2776 15.8636 100.247C15.7416 105.936 15.0399 113.578 16.55 120.076H101.665C102.821 113.249 103.61 106.365 104.029 99.4534C105.144 81.0803 103.816 62.6404 100.079 44.6168Z" fill="#F3BED8"/>
<path d="M58.5128 62.8753C58.5128 62.8753 55.4621 94.9993 58.5128 99.6822C59.0048 99.8511 59.5405 99.8413 60.0259 99.6544C60.5114 99.4674 60.9154 99.1154 61.167 98.6602C61.9754 97.0281 58.9247 90.7131 61.167 64.004C61.167 64.004 79.3187 68.4886 84.0474 57.0637C84.0474 57.0637 85.4812 50.7334 78.9527 51.3588C72.4241 51.9842 61.7771 56.1332 60.145 59.489C58.345 56.7025 55.8136 54.4646 52.8274 53.02C49.8413 51.5754 46.5154 50.9796 43.2135 51.2978C43.2135 51.2978 38.5306 51.5419 37.9052 55.218C37.2798 58.8941 38.9272 62.5702 45.6693 62.8448C52.4114 63.1193 58.5128 62.8753 58.5128 62.8753Z" fill="#F5F9EC"/>
<path d="M51.6219 32.5322C51.6789 31.1085 51.0899 29.929 50.3065 29.8976C49.523 29.8663 48.8417 30.995 48.7848 32.4187C48.7278 33.8424 49.3168 35.022 50.1002 35.0533C50.8837 35.0847 51.565 33.9559 51.6219 32.5322Z" fill="#4B6FB6"/>
<path d="M67.9241 33.0975C67.9775 31.6748 67.3861 30.4977 66.6032 30.4683C65.8203 30.4389 65.1423 31.5684 65.0889 32.9911C65.0355 34.4138 65.6269 35.591 66.4098 35.6204C67.1927 35.6498 67.8707 34.5202 67.9241 33.0975Z" fill="#4B6FB6"/>
<path d="M41.4746 72.6834C41.4746 72.6834 64.9346 68.4734 64.7211 80.8441C64.5662 83.3012 63.573 85.6307 61.9072 87.4436C60.2415 89.2565 58.0041 90.4429 55.5689 90.8047C46.5846 92.5283 43.9457 92.7114 43.9457 92.7114" fill="#F3BED8"/>
<path d="M57.8723 73.0952C59.2761 75.2952 59.8494 77.9237 59.4892 80.5085C58.7408 83.3136 57.063 85.7818 54.7301 87.5099C52.2678 89.4054 49.5516 90.9458 46.6609 92.0859C46.1271 92.3147 45.5779 92.5283 45.0288 92.7113C46.5542 92.5283 49.6812 92.0554 55.5233 90.9267C57.9618 90.579 60.2052 89.3989 61.8732 87.5864C63.5412 85.7738 64.5312 83.4403 64.6754 80.9813C64.7975 76.5273 61.7772 74.224 57.8723 73.0952Z" fill="#F1A8CA"/>
</g>
<defs>
<clipPath id="clip0_34_3050">
<rect width="120" height="120" rx="16" fill="white"/>
</clipPath>
</defs>
</svg>
