<svg width="120" height="120" viewBox="0 0 120 120" fill="none" xmlns="http://www.w3.org/2000/svg">
<g clip-path="url(#clip0_34_3125)">
<path d="M120 0H0V120H120V0Z" fill="#F5F9EC"/>
<path d="M103.724 92.4978C103.864 92.1655 103.906 91.8006 103.846 91.4453C102.962 76.9696 101.757 62.3719 96.7078 48.7352C88.2725 25.9311 64.8278 30.7665 64.8278 30.7665L55.4468 33.5579L48.6742 29.7598L0 42.7101V111.809C0 113.985 0.864604 116.073 2.40361 117.612C3.94261 119.151 6.02995 120.015 8.20643 120.015H34.2901L102.474 93.413C102.992 93.2781 103.439 92.9508 103.724 92.4978Z" fill="#718EC8"/>
<path d="M36.1968 108.743L85.0235 91.2622L113.502 114.051L95.0604 120H50.2911L36.1968 108.743Z" fill="#F9D96D"/>
<path d="M12.0503 84.749C12.4164 85.9083 86.9455 61.5635 86.9455 59.9924C86.9455 58.4213 82.3694 34.2901 55.4468 33.5579L0 50.3369V64.477C0 64.477 7.70306 71.1885 12.0503 84.749Z" fill="#4156A6"/>
<path d="M92.5433 73.0037C94.7505 73.0037 96.5398 71.2144 96.5398 69.0072C96.5398 66.8001 94.7505 65.0108 92.5433 65.0108C90.3361 65.0108 88.5469 66.8001 88.5469 69.0072C88.5469 71.2144 90.3361 73.0037 92.5433 73.0037Z" fill="#F5F9EC"/>
<path d="M92.5433 83.1473C94.7505 83.1473 96.5398 81.358 96.5398 79.1509C96.5398 76.9437 94.7505 75.1544 92.5433 75.1544C90.3361 75.1544 88.5469 76.9437 88.5469 79.1509C88.5469 81.358 90.3361 83.1473 92.5433 83.1473Z" fill="#F1A8CA"/>
<path d="M7.35205 94.4502V102.962L30.7511 96.0518V87.8912L7.35205 94.4502Z" fill="#F5F9EC"/>
<path d="M0 50.3369L47.1794 36.0595C42.1328 26.7909 40.8021 15.9493 43.4575 5.73535L0 17.5111V50.3369Z" fill="#DADAB7"/>
</g>
<defs>
<clipPath id="clip0_34_3125">
<rect width="120" height="120" rx="16" fill="white"/>
</clipPath>
</defs>
</svg>
