<svg width="120" height="120" viewBox="0 0 120 120" fill="none" xmlns="http://www.w3.org/2000/svg">
<g clip-path="url(#clip0_34_3077)">
<path d="M120 0H0V120H120V0Z" fill="#F4F8EB"/>
<path d="M29.8857 107.657V84.8571H107.657V95.3714C107.657 102.171 102.171 107.657 95.3715 107.657H29.8857Z" fill="white"/>
<path d="M107.372 85.1428V88.9714V95.3714C107.372 102 102 107.371 95.3715 107.371H76.0001H44.0001H30.1715V85.1428H107.372ZM107.943 84.5714H29.6001V107.943H44.0001H76.0001H95.3715C102.343 107.943 107.943 102.286 107.943 95.3714V88.9714V84.5714Z" fill="#F4F8EB"/>
<path d="M107.943 31.1428V24.6286C107.943 17.6571 102.286 12.0571 95.3715 12.0571H76.0001H44.0001H29.6001V31.1428H107.943Z" fill="#F4CFE2"/>
<path d="M107.657 31.4286H29.8857V84.2857H107.657V31.4286Z" fill="white"/>
<path d="M107.372 31.7143V35.4286V84H30.1715V31.7143H107.372ZM107.943 31.1429H29.6001V84.5714H107.943V35.3714V31.1429Z" fill="#F4F8EB"/>
<path d="M24.6285 107.657C17.8285 107.657 12.3428 102.171 12.3428 95.3714V84.8571H29.3142V107.657H24.6285Z" fill="white"/>
<path d="M29.0286 85.1428V107.371H24.6286C18 107.371 12.6286 102 12.6286 95.3714V88.9714V85.1428H29.0286ZM29.6 84.5714H12.0571V88.9714V95.3714C12.0571 102.343 17.7143 107.943 24.6286 107.943H29.6V84.5714Z" fill="#F4F8EB"/>
<path d="M12.0571 24.6286V31.1428H29.6V12.0571H24.6286C17.6571 12.0571 12.0571 17.6571 12.0571 24.6286Z" fill="#F3BDD7"/>
<path d="M12.0571 31.1429V35.3714V84.5714H29.6V31.1429H12.0571Z" fill="#D9DAB6"/>
</g>
<defs>
<clipPath id="clip0_34_3077">
<rect width="120" height="120" rx="16" fill="white"/>
</clipPath>
</defs>
</svg>
