<svg width="120" height="120" viewBox="0 0 120 120" fill="none" xmlns="http://www.w3.org/2000/svg">
<g clip-path="url(#clip0_34_3093)">
<path d="M120 0H0V120H120V0Z" fill="#F4F8EB"/>
<path d="M0 18.1714H71.5429C90.9714 18.1714 106.914 34.0572 106.914 53.5429C106.914 72.9714 91.0286 88.9143 71.5429 88.9143H0V18.1714Z" fill="white"/>
<path fill-rule="evenodd" clip-rule="evenodd" d="M68.2286 38.9343C59.34 38.9343 52.1343 46.1399 52.1343 55.0286C52.1343 63.9172 59.34 71.1229 68.2286 71.1229C77.1172 71.1229 84.3229 63.9172 84.3229 55.0286C84.3229 46.1399 77.1172 38.9343 68.2286 38.9343ZM41.6943 55.0286C41.6943 40.3741 53.5741 28.4943 68.2286 28.4943C82.8831 28.4943 94.7629 40.3741 94.7629 55.0286C94.7629 69.683 82.8831 81.5628 68.2286 81.5628C53.5741 81.5628 41.6943 69.683 41.6943 55.0286Z" fill="#F3BDD7"/>
<path fill-rule="evenodd" clip-rule="evenodd" d="M71.0855 37.4485C62.1969 37.4485 54.9912 44.6542 54.9912 53.5429C54.9912 62.4315 62.1969 69.6372 71.0855 69.6372C79.9742 69.6372 87.1798 62.4315 87.1798 53.5429C87.1798 44.6542 79.9742 37.4485 71.0855 37.4485ZM44.5513 53.5429C44.5513 38.8884 56.4311 27.0086 71.0855 27.0086C85.74 27.0086 97.6198 38.8884 97.6198 53.5429C97.6198 68.1973 85.74 80.0771 71.0855 80.0771C56.4311 80.0771 44.5513 68.1973 44.5513 53.5429Z" fill="#F4CFE2"/>
<path d="M97.2 106.286C93.6 108.171 89.1428 106.8 87.2 103.2L77.8285 85.4286C75.9428 81.8286 77.3143 77.3714 80.9143 75.4286C84.5143 73.5429 88.9714 74.9143 90.9143 78.5143L100.286 96.2857C102.171 99.9429 100.8 104.4 97.2 106.286Z" fill="#F8E457"/>
<path d="M89.0284 78.6286L78.9141 84C77.257 84.8571 75.1998 84.2285 74.3427 82.5714L73.9998 81.8857C73.1427 80.2286 73.7713 78.1714 75.4284 77.3143L85.5427 71.9428C87.1998 71.0857 89.257 71.7143 90.1141 73.3714L90.457 74.0571C91.3141 75.7143 90.6856 77.7714 89.0284 78.6286Z" fill="white"/>
</g>
<defs>
<clipPath id="clip0_34_3093">
<rect width="120" height="120" rx="16" fill="white"/>
</clipPath>
</defs>
</svg>
