<svg width="120" height="120" viewBox="0 0 120 120" fill="none" xmlns="http://www.w3.org/2000/svg">
<g clip-path="url(#clip0_34_2971)">
<path d="M120 -6.10352e-05H0V120H120V-6.10352e-05Z" fill="#F5F9EC"/>
<path d="M59.6658 67.3231C67.7278 67.3231 74.2633 60.7038 74.2633 52.5385C74.2633 44.3731 67.7278 37.7538 59.6658 37.7538C51.6039 37.7538 45.0684 44.3731 45.0684 52.5385C45.0684 60.7038 51.6039 67.3231 59.6658 67.3231Z" fill="#F1A8CA"/>
<path d="M61.3213 -16.9231H61.3061C52.6821 -16.9231 45.6909 -9.84231 45.6909 -1.10771V-1.09233C45.6909 7.64227 52.6821 14.7231 61.3061 14.7231H61.3213C69.9453 14.7231 76.9365 7.64227 76.9365 -1.09233V-1.10771C76.9365 -9.84231 69.9453 -16.9231 61.3213 -16.9231Z" fill="#FFD401"/>
<path d="M111.357 27.1385C111.357 16.9255 103.182 8.64618 93.0986 8.64618C83.0148 8.64618 74.8403 16.9255 74.8403 27.1385C74.8403 37.3515 83.0148 45.6308 93.0986 45.6308C103.182 45.6308 111.357 37.3515 111.357 27.1385Z" fill="#DADAB7"/>
<path d="M120 63.0889L42.7738 62.5C42.3488 62.6395 40.2542 63.3369 40.0114 70.2486C39.9712 71.1574 40.0375 72.0679 40.2087 72.9606C40.3803 74.1511 40.8688 75.2706 41.6209 76.197C42.373 77.1234 43.3598 77.8212 44.4737 78.2142C44.785 78.2564 45.0791 78.385 45.3237 78.5861C45.4774 78.7811 45.5863 79.0088 45.6424 79.2525C49.6646 92.9985 53.2315 106.869 54.0359 121.25H120V63.0889Z" fill="#718EC8"/>
<path d="M64.5594 88.6268C64.3706 87.058 62.9619 85.9413 61.4129 86.1326C59.864 86.3238 58.7615 87.7506 58.9503 89.3193L62.0308 114.914C62.2196 116.483 63.6283 117.6 65.1772 117.409C66.7261 117.218 67.8287 115.791 67.6399 114.222L64.5594 88.6268Z" fill="#F5F9EC"/>
<path d="M79.8343 88.631C79.6455 87.0622 78.2368 85.9455 76.6879 86.1367C75.1389 86.3279 74.0364 87.7547 74.2252 89.3235L77.3057 114.919C77.4945 116.487 78.9032 117.604 80.4521 117.413C82.001 117.222 83.1036 115.795 82.9148 114.226L79.8343 88.631Z" fill="#F5F9EC"/>
<path d="M95.1243 88.6333C94.9355 87.0645 93.5268 85.9478 91.9779 86.139C90.429 86.3303 89.3264 87.757 89.5152 89.3258L92.5957 114.921C92.7845 116.49 94.1933 117.606 95.7422 117.415C97.2911 117.224 98.3937 115.797 98.2049 114.228L95.1243 88.6333Z" fill="#F5F9EC"/>
<path d="M109.849 88.0644C109.661 86.4956 108.252 85.3789 106.703 85.5701C105.154 85.7614 104.051 87.1881 104.24 88.7569L107.321 114.352C107.51 115.921 108.918 117.038 110.467 116.846C112.016 116.655 113.119 115.228 112.93 113.66L109.849 88.0644Z" fill="#F5F9EC"/>
</g>
<defs>
<clipPath id="clip0_34_2971">
<rect width="120" height="120" rx="16" fill="white"/>
</clipPath>
</defs>
</svg>
