<svg width="120" height="120" viewBox="0 0 120 120" fill="none" xmlns="http://www.w3.org/2000/svg">
<g clip-path="url(#clip0_34_3016)">
<path d="M120 0H0V120H120V0Z" fill="#F5D0E3"/>
<path d="M0 106.562V120H120V106.562H0Z" fill="#F3BED8"/>
<path d="M111.488 99.3009H92.879V90.286C92.883 89.7419 92.7795 89.2023 92.5746 88.6982C92.3696 88.1942 92.0671 87.7356 91.6844 87.3487C91.3018 86.9618 90.8466 86.6542 90.3448 86.4437C89.843 86.2332 89.3046 86.1238 88.7605 86.1218H57.6127C57.0678 86.1238 56.5287 86.2331 56.0261 86.4434C55.5235 86.6538 55.0672 86.9611 54.6834 87.3478C54.2995 87.7344 53.9956 88.1929 53.7889 88.6971C53.5823 89.2012 53.4769 89.7411 53.4789 90.286V99.3009H34.8696C34.3254 99.3029 33.787 99.4123 33.2853 99.6228C32.7835 99.8333 32.3282 100.141 31.9456 100.528C31.563 100.915 31.2605 101.373 31.0555 101.877C30.8505 102.381 30.7471 102.921 30.7511 103.465V104.716C30.7471 105.26 30.8505 105.8 31.0555 106.304C31.2605 106.808 31.563 107.266 31.9456 107.653C32.3282 108.04 32.7835 108.348 33.2853 108.558C33.787 108.769 34.3254 108.878 34.8696 108.88H111.488C112.033 108.878 112.572 108.769 113.075 108.558C113.578 108.348 114.034 108.041 114.418 107.654C114.802 107.267 115.105 106.809 115.312 106.305C115.519 105.801 115.624 105.261 115.622 104.716V103.465C115.624 102.92 115.519 102.38 115.312 101.876C115.105 101.372 114.802 100.914 114.418 100.527C114.034 100.14 113.578 99.8329 113.075 99.6225C112.572 99.4122 112.033 99.3029 111.488 99.3009Z" fill="#F5F9EC"/>
<path d="M117.788 83.5897H28.5698C26.2395 83.5695 24.0119 82.6276 22.374 80.9697C20.7362 79.3119 19.8214 77.073 19.8295 74.7426V27.4565C19.8275 26.2974 20.0541 25.1493 20.4963 24.0778C20.9384 23.0064 21.5875 22.0327 22.4064 21.2123C23.2253 20.392 24.1979 19.7412 25.2686 19.2972C26.3393 18.8532 27.487 18.6246 28.6461 18.6246H117.788C118.535 18.6279 119.278 18.7252 120 18.9145V11.73H24.7869C23.1283 11.736 21.4872 12.0686 19.9571 12.7089C18.4271 13.3492 17.0381 14.2845 15.8696 15.4616C14.701 16.6386 13.7757 18.0343 13.1466 19.569C12.5174 21.1036 12.1967 22.7471 12.2027 24.4057V77.351C12.1987 80.6954 13.5212 83.9048 15.8804 86.2754C18.2395 88.646 21.4425 89.9841 24.7869 89.9962H120V83.2999C119.278 83.4891 118.535 83.5864 117.788 83.5897Z" fill="#F5F9EC"/>
<path d="M19.8296 34.4426V74.7426C19.8276 75.9017 20.0542 77.0498 20.4963 78.1212C20.9385 79.1927 21.5876 80.1664 22.4065 80.9867C23.2254 81.807 24.198 82.4578 25.2687 82.9018C26.3394 83.3459 27.4871 83.5744 28.6462 83.5744H117.788C118.535 83.5712 119.278 83.4738 120 83.2846V34.4731L19.8296 34.4426Z" fill="#DADAB7"/>
<path d="M28.5699 18.6246C26.2422 18.6448 24.0169 19.5846 22.3795 21.2392C20.7421 22.8937 19.8255 25.1287 19.8296 27.4565V34.4426H120V18.9145C119.278 18.7252 118.535 18.6279 117.788 18.6246H28.5699Z" fill="#4B6FB6"/>
<path d="M28.4632 30.1564C30.3839 30.1564 31.941 28.5993 31.941 26.6785C31.941 24.7578 30.3839 23.2007 28.4632 23.2007C26.5424 23.2007 24.9854 24.7578 24.9854 26.6785C24.9854 28.5993 26.5424 30.1564 28.4632 30.1564Z" fill="#F3A835"/>
<path d="M39.3694 30.1564C41.2902 30.1564 42.8472 28.5993 42.8472 26.6785C42.8472 24.7578 41.2902 23.2007 39.3694 23.2007C37.4487 23.2007 35.8916 24.7578 35.8916 26.6785C35.8916 28.5993 37.4487 30.1564 39.3694 30.1564Z" fill="#F3BED8"/>
</g>
<defs>
<clipPath id="clip0_34_3016">
<rect width="120" height="120" rx="16" fill="white"/>
</clipPath>
</defs>
</svg>
